<svg width="29" height="29" viewBox="0 0 29 29" fill="none" xmlns="http://www.w3.org/2000/svg">
<g id="Apple - Original" clip-path="url(#clip0_1_113)">
<path id="path4" d="M26.0237 22.1887C25.6003 23.1669 25.0991 24.0674 24.5183 24.8953C23.7268 26.0239 23.0786 26.8051 22.5791 27.2389C21.8048 27.951 20.9752 28.3156 20.0869 28.3364C19.4491 28.3364 18.68 28.1549 17.7847 27.7868C16.8865 27.4204 16.0611 27.2389 15.3063 27.2389C14.5147 27.2389 13.6657 27.4204 12.7577 27.7868C11.8482 28.1549 11.1156 28.3468 10.5554 28.3658C9.70353 28.4021 8.8544 28.027 8.00682 27.2389C7.46585 26.7671 6.7892 25.9582 5.97861 24.8123C5.10891 23.5886 4.3939 22.1697 3.83374 20.5519C3.23384 18.8046 2.93311 17.1125 2.93311 15.4744C2.93311 13.5979 3.33857 11.9795 4.15072 10.6233C4.789 9.53392 5.63813 8.67458 6.70089 8.04374C7.76364 7.41289 8.91195 7.09142 10.1486 7.07086C10.8252 7.07086 11.7126 7.28016 12.8152 7.6915C13.9148 8.10423 14.6208 8.31353 14.9304 8.31353C15.1618 8.31353 15.9461 8.0688 17.2757 7.58089C18.5331 7.12841 19.5943 6.94106 20.4637 7.01486C22.8194 7.20498 24.5892 8.13361 25.7662 9.80665C23.6594 11.0832 22.6172 12.8712 22.6379 15.1649C22.6569 16.9514 23.305 18.4382 24.5788 19.6186C25.1561 20.1665 25.8008 20.59 26.518 20.8907C26.3625 21.3418 26.1983 21.7739 26.0237 22.1887ZM20.6209 0.928324C20.6209 2.32864 20.1093 3.63612 19.0896 4.8463C17.859 6.28498 16.3706 7.11631 14.7565 6.98513C14.7359 6.81713 14.724 6.64033 14.724 6.45453C14.724 5.11022 15.3092 3.67155 16.3485 2.49524C16.8673 1.89965 17.5272 1.40443 18.3274 1.00938C19.1259 0.620228 19.8812 0.405018 20.5916 0.368164C20.6123 0.555365 20.6209 0.742578 20.6209 0.928306V0.928324Z" fill="#111928"/>
</g>
<defs>
<clipPath id="clip0_1_113">
<rect width="28" height="28" fill="white" transform="translate(0.599609 0.36792)"/>
</clipPath>
</defs>
</svg>
