<svg width="22" height="22" viewBox="0 0 22 22" fill="none" xmlns="http://www.w3.org/2000/svg">
<g id="vuesax/outline/note-text">
<g id="vuesax/outline/note-text_2">
<g id="note-text">
<path id="Vector" d="M7.3335 5.27081C6.95766 5.27081 6.646 4.95915 6.646 4.58331V1.83331C6.646 1.45748 6.95766 1.14581 7.3335 1.14581C7.70933 1.14581 8.021 1.45748 8.021 1.83331V4.58331C8.021 4.95915 7.70933 5.27081 7.3335 5.27081Z" fill="#292D32"/>
<path id="Vector_2" d="M14.6665 5.27081C14.2907 5.27081 13.979 4.95915 13.979 4.58331V1.83331C13.979 1.45748 14.2907 1.14581 14.6665 1.14581C15.0423 1.14581 15.354 1.45748 15.354 1.83331V4.58331C15.354 4.95915 15.0423 5.27081 14.6665 5.27081Z" fill="#292D32"/>
<path id="Vector_3" d="M14.6667 20.8541H7.33333C3.9875 20.8541 2.0625 18.9291 2.0625 15.5833V7.79165C2.0625 4.44581 3.9875 2.52081 7.33333 2.52081H14.6667C18.0125 2.52081 19.9375 4.44581 19.9375 7.79165V15.5833C19.9375 18.9291 18.0125 20.8541 14.6667 20.8541ZM7.33333 3.89581C4.71167 3.89581 3.4375 5.16998 3.4375 7.79165V15.5833C3.4375 18.205 4.71167 19.4791 7.33333 19.4791H14.6667C17.2883 19.4791 18.5625 18.205 18.5625 15.5833V7.79165C18.5625 5.16998 17.2883 3.89581 14.6667 3.89581H7.33333Z" fill="#292D32"/>
<path id="Vector_4" d="M14.6668 10.7708H7.3335C6.95766 10.7708 6.646 10.4591 6.646 10.0833C6.646 9.70748 6.95766 9.39581 7.3335 9.39581H14.6668C15.0427 9.39581 15.3543 9.70748 15.3543 10.0833C15.3543 10.4591 15.0427 10.7708 14.6668 10.7708Z" fill="#292D32"/>
<path id="Vector_5" d="M11.0002 15.3542H7.3335C6.95766 15.3542 6.646 15.0425 6.646 14.6667C6.646 14.2909 6.95766 13.9792 7.3335 13.9792H11.0002C11.376 13.9792 11.6877 14.2909 11.6877 14.6667C11.6877 15.0425 11.376 15.3542 11.0002 15.3542Z" fill="#292D32"/>
</g>
</g>
</g>
</svg>
