<svg width="28" height="28" viewBox="0 0 28 28" fill="none" xmlns="http://www.w3.org/2000/svg">
<path d="M24.6791 8.41841C23.973 6.02411 21.9759 4.02702 19.5816 3.32086C17.761 2.79125 16.5032 2.83538 15.6315 3.48637C14.5833 4.26976 14.462 5.68207 14.462 6.68613V9.43351C14.462 12.1478 15.6977 13.527 18.1251 13.527H21.2918C22.2848 13.527 23.7082 13.4056 24.4916 12.3574C25.1646 11.4968 25.2198 10.239 24.6791 8.41841Z" fill="#787878"/>
<path opacity="0.4" d="M21.6339 15.491C21.347 15.1599 20.9277 14.9724 20.4974 14.9724H16.5474C14.6054 14.9724 13.0276 13.3946 13.0276 11.4526V7.5026C13.0276 7.07229 12.84 6.65301 12.509 6.36613C12.1891 6.07926 11.7477 5.94685 11.3284 6.00202C8.73552 6.33303 6.35225 7.75637 4.79651 9.8969C3.22973 12.0485 2.65598 14.6745 3.15249 17.3005C3.86968 21.0961 6.90394 24.1303 10.7105 24.8475C11.3174 24.9689 11.9242 25.024 12.5311 25.024C14.5282 25.024 16.4591 24.4061 18.1031 23.2035C20.2436 21.6477 21.667 19.2645 21.998 16.6716C22.0531 16.2412 21.9207 15.8109 21.6339 15.491Z" fill="#787878"/>
</svg>
