<svg width="20" height="14" viewBox="0 0 20 14" fill="none" xmlns="http://www.w3.org/2000/svg">
<path d="M4.92321 6.99999C4.92321 6.59615 5.07897 6.1923 5.38474 5.88653L9.14628 2.12499C9.31359 1.95768 9.59051 1.95768 9.75782 2.12499C9.92513 2.2923 9.92513 2.56922 9.75782 2.73653L5.99628 6.49807C5.71936 6.77499 5.71936 7.22499 5.99628 7.50192L9.75782 11.2635C9.92513 11.4308 9.92513 11.7077 9.75782 11.875C9.59051 12.0423 9.31359 12.0423 9.14628 11.875L5.38474 8.11345C5.07897 7.80769 4.92321 7.40384 4.92321 6.99999Z" fill="#292D32"/>
<path d="M9.53856 6.99999C9.53856 6.59615 9.69433 6.1923 10.0001 5.88653L13.7616 2.12499C13.9289 1.95768 14.2059 1.95768 14.3732 2.12499C14.5405 2.2923 14.5405 2.56922 14.3732 2.73653L10.6116 6.49807C10.3347 6.77499 10.3347 7.22499 10.6116 7.50192L14.3732 11.2635C14.5405 11.4308 14.5405 11.7077 14.3732 11.875C14.2059 12.0423 13.9289 12.0423 13.7616 11.875L10.0001 8.11345C9.69433 7.80769 9.53856 7.40384 9.53856 6.99999Z" fill="#292D32"/>
</svg>
