<svg width="16" height="16" viewBox="0 0 16 16" fill="none" xmlns="http://www.w3.org/2000/svg">
<g id="vuesax/outline/trash">
<g id="vuesax/outline/trash_2">
<g id="trash">
<path id="Vector" d="M13.9671 4.39558C13.9544 4.39558 13.9354 4.39558 13.9164 4.39558C10.5661 4.05991 7.22211 3.93325 3.90978 4.26891L2.61778 4.39558C2.35178 4.42091 2.11744 4.23091 2.09211 3.96491C2.06678 3.69891 2.25678 3.47091 2.51644 3.44558L3.80844 3.31891C7.17778 2.97691 10.5914 3.10991 14.0114 3.44558C14.2711 3.47091 14.4611 3.70525 14.4358 3.96491C14.4168 4.21191 14.2078 4.39558 13.9671 4.39558Z" fill="#292D32"/>
<path id="Vector_2" d="M6.05018 3.75593C6.02484 3.75593 5.99951 3.75593 5.96784 3.74959C5.71451 3.70526 5.53718 3.45826 5.58151 3.20493L5.72084 2.37526C5.82218 1.76726 5.96151 0.924927 7.43718 0.924927H9.09651C10.5785 0.924927 10.7178 1.79893 10.8128 2.38159L10.9522 3.20493C10.9965 3.46459 10.8192 3.71159 10.5658 3.74959C10.3062 3.79393 10.0592 3.61659 10.0212 3.36326L9.88184 2.53993C9.79318 1.98893 9.77418 1.88126 9.10284 1.88126H7.44351C6.77218 1.88126 6.75951 1.96993 6.66451 2.53359L6.51884 3.35693C6.48084 3.59126 6.27818 3.75593 6.05018 3.75593Z" fill="#292D32"/>
<path id="Vector_3" d="M10.3002 14.5417H6.2342C4.02387 14.5417 3.9352 13.3193 3.86554 12.3313L3.45387 5.95366C3.43487 5.69399 3.63754 5.46599 3.8972 5.44699C4.1632 5.43432 4.38487 5.63066 4.40387 5.89032L4.81554 12.268C4.8852 13.2307 4.91054 13.5917 6.2342 13.5917H10.3002C11.6302 13.5917 11.6555 13.2307 11.7189 12.268L12.1305 5.89032C12.1495 5.63066 12.3775 5.43432 12.6372 5.44699C12.8969 5.46599 13.0995 5.68766 13.0805 5.95366L12.6689 12.3313C12.5992 13.3193 12.5105 14.5417 10.3002 14.5417Z" fill="#292D32"/>
<path id="Vector_4" d="M9.31837 11.0583H7.20937C6.94971 11.0583 6.73438 10.8429 6.73438 10.5833C6.73438 10.3236 6.94971 10.1083 7.20937 10.1083H9.31837C9.57804 10.1083 9.79337 10.3236 9.79337 10.5833C9.79337 10.8429 9.57804 11.0583 9.31837 11.0583Z" fill="#292D32"/>
<path id="Vector_5" d="M9.85016 8.52495H6.6835C6.42383 8.52495 6.2085 8.30962 6.2085 8.04995C6.2085 7.79028 6.42383 7.57495 6.6835 7.57495H9.85016C10.1098 7.57495 10.3252 7.79028 10.3252 8.04995C10.3252 8.30962 10.1098 8.52495 9.85016 8.52495Z" fill="#292D32"/>
</g>
</g>
</g>
</svg>
