<svg width="28" height="28" viewBox="0 0 28 28" fill="none" xmlns="http://www.w3.org/2000/svg">
<path d="M23.9399 18.6797H17.3197C16.8673 18.6797 16.4922 18.3046 16.4922 17.8522C16.4922 17.3998 16.8673 17.0247 17.3197 17.0247H23.9399C24.3923 17.0247 24.7674 17.3998 24.7674 17.8522C24.7674 18.3046 24.3923 18.6797 23.9399 18.6797Z" fill="black"/>
<path d="M23.9399 23.0932H17.3197C16.8673 23.0932 16.4922 22.718 16.4922 22.2656C16.4922 21.8133 16.8673 21.4381 17.3197 21.4381H23.9399C24.3923 21.4381 24.7674 21.8133 24.7674 22.2656C24.7674 22.718 24.3923 23.0932 23.9399 23.0932Z" fill="black"/>
<path opacity="0.4" d="M25.0433 10.1507V5.14139C25.0433 3.58564 24.3371 2.95673 22.5828 2.95673H18.1252C16.3708 2.95673 15.6647 3.58564 15.6647 5.14139V10.1396C15.6647 11.7064 16.3708 12.3243 18.1252 12.3243H22.5828C24.3371 12.3353 25.0433 11.7064 25.0433 10.1507Z" fill="black"/>
<path d="M12.3546 10.1507V5.14139C12.3546 3.58564 11.6484 2.95673 9.89405 2.95673H5.43646C3.68211 2.95673 2.97595 3.58564 2.97595 5.14139V10.1396C2.97595 11.7064 3.68211 12.3243 5.43646 12.3243H9.89405C11.6484 12.3353 12.3546 11.7064 12.3546 10.1507Z" fill="black"/>
<path opacity="0.4" d="M12.3546 22.5635V18.106C12.3546 16.3516 11.6484 15.6454 9.89405 15.6454H5.43646C3.68211 15.6454 2.97595 16.3516 2.97595 18.106V22.5635C2.97595 24.3179 3.68211 25.0241 5.43646 25.0241H9.89405C11.6484 25.0241 12.3546 24.3179 12.3546 22.5635Z" fill="black"/>
</svg>
