<svg width="28" height="28" viewBox="0 0 28 28" fill="none" xmlns="http://www.w3.org/2000/svg">
<path opacity="0.4" d="M23.9399 8.47361V19.5073C23.9399 22.8174 22.2849 25.0241 18.4231 25.0241H9.59617C5.73439 25.0241 4.07935 22.8174 4.07935 19.5073V8.47361C4.07935 5.16352 5.73439 2.95679 9.59617 2.95679H18.4231C22.2849 2.95679 23.9399 5.16352 23.9399 8.47361Z" fill="#787878"/>
<path d="M21.1815 10.9562H18.9747C17.2976 10.9562 15.9405 9.59907 15.9405 7.92195V5.71522C15.9405 5.26284 16.3156 4.8877 16.768 4.8877C17.2204 4.8877 17.5955 5.26284 17.5955 5.71522V7.92195C17.5955 8.68327 18.2134 9.30116 18.9747 9.30116H21.1815C21.6339 9.30116 22.009 9.6763 22.009 10.1287C22.009 10.5811 21.6339 10.9562 21.1815 10.9562Z" fill="#787878"/>
<path d="M14.0096 15.9213H9.59614C9.14376 15.9213 8.76862 15.5461 8.76862 15.0938C8.76862 14.6414 9.14376 14.2662 9.59614 14.2662H14.0096C14.462 14.2662 14.8371 14.6414 14.8371 15.0938C14.8371 15.5461 14.462 15.9213 14.0096 15.9213Z" fill="#787878"/>
<path d="M18.4231 20.3347H9.59614C9.14376 20.3347 8.76862 19.9596 8.76862 19.5072C8.76862 19.0548 9.14376 18.6797 9.59614 18.6797H18.4231C18.8754 18.6797 19.2506 19.0548 19.2506 19.5072C19.2506 19.9596 18.8754 20.3347 18.4231 20.3347Z" fill="#787878"/>
</svg>
