<svg width="16" height="17" viewBox="0 0 16 17" fill="none" xmlns="http://www.w3.org/2000/svg">
<path d="M9.31194 3.88302C9.31194 4.60882 8.72359 5.1972 7.99777 5.1972C7.27195 5.1972 6.68359 4.60882 6.68359 3.88302C6.68359 3.15722 7.27195 2.56885 7.99777 2.56885C8.72359 2.56885 9.31194 3.15722 9.31194 3.88302Z" fill="#787878"/>
<path d="M9.31194 8.48288C9.31194 9.2087 8.72359 9.79705 7.99777 9.79705C7.27195 9.79705 6.68359 9.2087 6.68359 8.48288C6.68359 7.75706 7.27195 7.1687 7.99777 7.1687C8.72359 7.1687 9.31194 7.75706 9.31194 8.48288Z" fill="#787878"/>
<path d="M7.99777 14.3967C8.72359 14.3967 9.31194 13.8083 9.31194 13.0825C9.31194 12.3567 8.72359 11.7683 7.99777 11.7683C7.27195 11.7683 6.68359 12.3567 6.68359 13.0825C6.68359 13.8083 7.27195 14.3967 7.99777 14.3967Z" fill="#787878"/>
</svg>
