<svg width="16" height="16" viewBox="0 0 16 16" fill="none" xmlns="http://www.w3.org/2000/svg">
<g id="vuesax/outline/edit-2">
<g id="vuesax/outline/edit-2_2">
<g id="edit-2">
<path id="Vector" d="M3.79772 12.496C3.41139 12.496 3.05039 12.363 2.79072 12.116C2.46139 11.8057 2.30305 11.337 2.36005 10.8303L2.59439 8.77835C2.63872 8.39201 2.87305 7.87902 3.14539 7.60035L8.34505 2.09668C9.64339 0.722348 10.9987 0.684348 12.3731 1.98268C13.7474 3.28101 13.7854 4.63635 12.4871 6.01068L7.28739 11.5143C7.02139 11.7993 6.52739 12.0653 6.14105 12.1287L4.10172 12.477C3.99405 12.4833 3.89905 12.496 3.79772 12.496ZM10.3781 1.97635C9.89039 1.97635 9.46605 2.28035 9.03539 2.73635L3.83572 8.24635C3.70905 8.37935 3.56339 8.69602 3.53805 8.87968L3.30372 10.9317C3.27839 11.1407 3.32905 11.3117 3.44305 11.4193C3.55705 11.527 3.72805 11.565 3.93705 11.5333L5.97639 11.185C6.16005 11.1533 6.46405 10.9887 6.59072 10.8557L11.7904 5.35201C12.5757 4.51601 12.8607 3.74335 11.7144 2.66668C11.2077 2.17901 10.7707 1.97635 10.3781 1.97635Z" fill="#292D32"/>
<path id="Vector_2" d="M11.2712 7.06825C11.2585 7.06825 11.2395 7.06825 11.2268 7.06825C9.25084 6.87191 7.66118 5.37091 7.35718 3.40758C7.31918 3.14791 7.49651 2.90725 7.75618 2.86291C8.01584 2.82491 8.25651 3.00225 8.30084 3.26191C8.54151 4.79458 9.78284 5.97258 11.3282 6.12458C11.5878 6.14991 11.7778 6.38425 11.7525 6.64391C11.7208 6.88458 11.5118 7.06825 11.2712 7.06825Z" fill="#292D32"/>
<path id="Vector_3" d="M13.5889 14.5417H2.18887C1.9292 14.5417 1.71387 14.3263 1.71387 14.0667C1.71387 13.807 1.9292 13.5917 2.18887 13.5917H13.5889C13.8485 13.5917 14.0639 13.807 14.0639 14.0667C14.0639 14.3263 13.8485 14.5417 13.5889 14.5417Z" fill="#292D32"/>
</g>
</g>
</g>
</svg>
