<svg width="29" height="29" viewBox="0 0 29 29" fill="none" xmlns="http://www.w3.org/2000/svg">
<g id="Facebook - Original" clip-path="url(#clip0_1_109)">
<path id="Vector" d="M28.9629 14.3679C28.9629 6.63593 22.6949 0.36792 14.9629 0.36792C7.2309 0.36792 0.962891 6.63593 0.962891 14.3679C0.962891 21.3556 6.08246 27.1476 12.7754 28.1978V18.4148H9.2207V14.3679H12.7754V11.2835C12.7754 7.7748 14.8655 5.83667 18.0634 5.83667C19.5946 5.83667 21.1973 6.11011 21.1973 6.11011V9.55542H19.432C17.6929 9.55542 17.1504 10.6347 17.1504 11.7429V14.3679H21.0332L20.4125 18.4148H17.1504V28.1978C23.8433 27.1476 28.9629 21.3556 28.9629 14.3679Z" fill="#1877F2"/>
<path id="Vector_2" d="M20.4125 18.4148L21.0332 14.3679H17.1504V11.7429C17.1504 10.6358 17.6929 9.55542 19.432 9.55542H21.1973V6.11011C21.1973 6.11011 19.5952 5.83667 18.0634 5.83667C14.8655 5.83667 12.7754 7.77479 12.7754 11.2835V14.3679H9.2207V18.4148H12.7754V28.1978C14.2249 28.4246 15.7009 28.4246 17.1504 28.1978V18.4148H20.4125Z" fill="white"/>
</g>
<defs>
<clipPath id="clip0_1_109">
<rect width="28" height="28" fill="white" transform="translate(0.962891 0.36792)"/>
</clipPath>
</defs>
</svg>
