<svg width="22" height="22" viewBox="0 0 22 22" fill="none" xmlns="http://www.w3.org/2000/svg">
<g id="vuesax/outline/filter">
<g id="vuesax/outline/filter_2">
<g id="filter">
<path id="Vector" d="M10.0284 20.7625C9.58836 20.7625 9.15753 20.6525 8.7542 20.4325C7.94753 19.9833 7.4617 19.1675 7.4617 18.2508V13.3925C7.4617 12.9341 7.1592 12.2466 6.87503 11.8983L3.4467 8.26832C2.8692 7.69082 2.4292 6.70082 2.4292 5.95832V3.84999C2.4292 2.38332 3.53837 1.23749 4.95003 1.23749H17.05C18.4434 1.23749 19.5709 2.36499 19.5709 3.75832V5.77499C19.5709 6.73749 18.9934 7.82832 18.4525 8.36915L14.4834 11.88C14.0984 12.2008 13.7959 12.9066 13.7959 13.475V17.4166C13.7959 18.2325 13.2825 19.1766 12.6409 19.5616L11.3759 20.3775C10.9634 20.6341 10.4959 20.7625 10.0284 20.7625ZM4.95003 2.61249C4.30837 2.61249 3.8042 3.15332 3.8042 3.84999V5.95832C3.8042 6.29749 4.0792 6.95749 4.42753 7.30582L7.92003 10.9817C8.38753 11.5591 8.84587 12.5217 8.84587 13.3833V18.2416C8.84587 18.8375 9.25837 19.1308 9.43253 19.2225C9.81753 19.4333 10.285 19.4333 10.6425 19.2133L11.9167 18.3975C12.1734 18.2416 12.43 17.7466 12.43 17.4166V13.475C12.43 12.4942 12.9067 11.4125 13.5942 10.835L17.5175 7.36082C17.8292 7.04915 18.205 6.30665 18.205 5.76582V3.75832C18.205 3.12582 17.6917 2.61249 17.0592 2.61249H4.95003Z" fill="#292D32"/>
<path id="Vector_2" d="M5.50011 9.85414C5.37178 9.85414 5.25261 9.81748 5.13344 9.75331C4.81261 9.55164 4.71178 9.12081 4.91344 8.79998L9.43261 1.55831C9.63428 1.23748 10.0559 1.13664 10.3768 1.33831C10.6976 1.53998 10.7984 1.96164 10.5968 2.28248L6.07761 9.52414C5.94928 9.73498 5.72928 9.85414 5.50011 9.85414Z" fill="#292D32"/>
</g>
</g>
</g>
</svg>
