<svg width="29" height="29" viewBox="0 0 29 29" fill="none" xmlns="http://www.w3.org/2000/svg">
<g id="Google - Original" clip-path="url(#clip0_1_105)">
<path id="Vector" d="M28.3787 14.6905C28.3787 13.7388 28.3015 12.782 28.1369 11.8457H14.9316V17.2368H22.4937C22.1799 18.9756 21.1716 20.5137 19.6952 21.4911V24.9892H24.2067C26.856 22.5508 28.3787 18.9499 28.3787 14.6905Z" fill="#4285F4"/>
<path id="Vector_2" d="M14.9316 28.3689C18.7075 28.3689 21.8918 27.1292 24.2118 24.9892L19.7003 21.4911C18.4452 22.345 16.8247 22.8286 14.9368 22.8286C11.2844 22.8286 8.18757 20.3645 7.07642 17.0516H2.4209V20.6577C4.79753 25.3853 9.63824 28.3689 14.9316 28.3689Z" fill="#34A853"/>
<path id="Vector_3" d="M7.07127 17.0516C6.48483 15.3128 6.48483 13.4301 7.07127 11.6913V8.08521H2.42089C0.435223 12.0411 0.435223 16.7018 2.42089 20.6577L7.07127 17.0516Z" fill="#FBBC04"/>
<path id="Vector_4" d="M14.9316 5.90919C16.9276 5.87832 18.8567 6.62938 20.3022 8.00803L24.2993 4.01097C21.7683 1.63434 18.4091 0.32771 14.9316 0.368863C9.63824 0.368863 4.79753 3.35251 2.4209 8.0852L7.07127 11.6913C8.17728 8.37327 11.2792 5.90919 14.9316 5.90919Z" fill="#EA4335"/>
</g>
<defs>
<clipPath id="clip0_1_105">
<rect width="28" height="28" fill="white" transform="translate(0.651855 0.36792)"/>
</clipPath>
</defs>
</svg>
