<svg width="28" height="28" viewBox="0 0 28 28" fill="none" xmlns="http://www.w3.org/2000/svg">
<path opacity="0.5" d="M23.7523 9.58804L16.5253 3.8064C15.113 2.68097 12.9062 2.66993 11.505 3.79537L4.27793 9.58804C3.24077 10.4156 2.61185 12.0706 2.83252 13.3726L4.22276 21.692C4.54274 23.5567 6.27502 25.0241 8.16177 25.0241H19.8574C21.7221 25.0241 23.4875 23.5236 23.8075 21.6809L25.1977 13.3616C25.3963 12.0706 24.7674 10.4156 23.7523 9.58804Z" fill="#787878"/>
<path d="M14.0096 21.4382C13.5572 21.4382 13.1821 21.0631 13.1821 20.6107V17.3006C13.1821 16.8482 13.5572 16.4731 14.0096 16.4731C14.462 16.4731 14.8371 16.8482 14.8371 17.3006V20.6107C14.8371 21.0631 14.462 21.4382 14.0096 21.4382Z" fill="#787878"/>
</svg>
