<svg width="24" height="24" viewBox="0 0 24 24" fill="none" xmlns="http://www.w3.org/2000/svg">
<path d="M12 22.7507C6.07 22.7507 1.25 17.9307 1.25 12.0007C1.25 6.07073 6.07 1.25073 12 1.25073C17.93 1.25073 22.75 6.07073 22.75 12.0007C22.75 17.9307 17.93 22.7507 12 22.7507ZM12 2.75073C6.9 2.75073 2.75 6.90073 2.75 12.0007C2.75 17.1007 6.9 21.2507 12 21.2507C17.1 21.2507 21.25 17.1007 21.25 12.0007C21.25 6.90073 17.1 2.75073 12 2.75073Z" fill="black"/>
<path d="M12 13.7507C11.59 13.7507 11.25 13.4107 11.25 13.0007V8.00073C11.25 7.59073 11.59 7.25073 12 7.25073C12.41 7.25073 12.75 7.59073 12.75 8.00073V13.0007C12.75 13.4107 12.41 13.7507 12 13.7507Z" fill="black"/>
<path d="M12 17.0007C11.87 17.0007 11.74 16.9707 11.62 16.9207C11.5 16.8707 11.39 16.8007 11.29 16.7107C11.2 16.6107 11.13 16.5107 11.08 16.3807C11.03 16.2607 11 16.1307 11 16.0007C11 15.8707 11.03 15.7407 11.08 15.6207C11.13 15.5007 11.2 15.3907 11.29 15.2907C11.39 15.2007 11.5 15.1307 11.62 15.0807C11.86 14.9807 12.14 14.9807 12.38 15.0807C12.5 15.1307 12.61 15.2007 12.71 15.2907C12.8 15.3907 12.87 15.5007 12.92 15.6207C12.97 15.7407 13 15.8707 13 16.0007C13 16.1307 12.97 16.2607 12.92 16.3807C12.87 16.5107 12.8 16.6107 12.71 16.7107C12.61 16.8007 12.5 16.8707 12.38 16.9207C12.26 16.9707 12.13 17.0007 12 17.0007Z" fill="black"/>
</svg>
