<svg width="28" height="28" viewBox="0 0 28 28" fill="none" xmlns="http://www.w3.org/2000/svg">
<path opacity="0.4" d="M10.6995 8.69416V19.2754C10.6995 22.8172 12.9063 25.024 16.437 25.024H19.2947C22.8255 25.024 25.0322 22.8172 25.0322 19.2865V8.69416C25.0433 5.16339 22.8365 2.95667 19.3058 2.95667H16.437C12.9063 2.95667 10.6995 5.16339 10.6995 8.69416Z" fill="#787878"/>
<path d="M6.91496 9.70932L3.21868 13.4056C2.8987 13.7256 2.8987 14.2552 3.21868 14.5752L6.91496 18.2714C7.23493 18.5914 7.76455 18.5914 8.08452 18.2714C8.4045 17.9515 8.4045 17.4218 8.08452 17.1019L5.80056 14.8179H17.5955C18.0479 14.8179 18.4231 14.4428 18.4231 13.9904C18.4231 13.538 18.0479 13.1628 17.5955 13.1628H5.80056L8.08452 10.8789C8.25003 10.7134 8.32726 10.5037 8.32726 10.2941C8.32726 10.0845 8.25003 9.86379 8.08452 9.70932C7.76455 9.37831 7.24597 9.37831 6.91496 9.70932Z" fill="#787878"/>
</svg>
