<svg width="22" height="22" viewBox="0 0 22 22" fill="none" xmlns="http://www.w3.org/2000/svg">
<path d="M14.2084 10.3125H7.79175C7.41591 10.3125 7.10425 10.0008 7.10425 9.625C7.10425 9.24917 7.41591 8.9375 7.79175 8.9375H14.2084C14.5842 8.9375 14.8959 9.24917 14.8959 9.625C14.8959 10.0008 14.5842 10.3125 14.2084 10.3125Z" fill="#292D32"/>
<path d="M14.6666 20.46C14.3549 20.46 14.0433 20.3683 13.7774 20.1942L9.87241 17.5908H6.41658C3.26325 17.5908 1.14575 15.4733 1.14575 12.32V6.81997C1.14575 3.66663 3.26325 1.54913 6.41658 1.54913H15.5833C18.7366 1.54913 20.8541 3.66663 20.8541 6.81997V12.32C20.8541 15.235 19.0391 17.27 16.2708 17.5542V18.8558C16.2708 19.4516 15.9499 19.9925 15.4274 20.2675C15.1891 20.3958 14.9233 20.46 14.6666 20.46ZM6.41658 2.91496C4.05159 2.91496 2.52075 4.44579 2.52075 6.81079V12.3108C2.52075 14.6758 4.05159 16.2066 6.41658 16.2066H10.0833C10.2208 16.2066 10.3491 16.2433 10.4683 16.3258L14.5474 19.0392C14.6482 19.1033 14.7399 19.0758 14.7858 19.0483C14.8316 19.0208 14.9049 18.9658 14.9049 18.8466V16.8941C14.9049 16.5183 15.2166 16.2066 15.5924 16.2066C17.9574 16.2066 19.4883 14.6758 19.4883 12.3108V6.81079C19.4883 4.44579 17.9574 2.91496 15.5924 2.91496H6.41658Z" fill="#292D32"/>
</svg>
