<svg width="22" height="22" viewBox="0 0 22 22" fill="none" xmlns="http://www.w3.org/2000/svg">
<g id="vuesax/outline/search-zoom-out">
<g id="vuesax/outline/search-zoom-out_2">
<g id="search-zoom-out">
<path id="Vector" d="M12.8333 11.4126H8.25C7.87417 11.4126 7.5625 11.1009 7.5625 10.7251C7.5625 10.3493 7.87417 10.0376 8.25 10.0376H12.8333C13.2092 10.0376 13.5208 10.3493 13.5208 10.7251C13.5208 11.1009 13.2092 11.4126 12.8333 11.4126Z" fill="black"/>
<path id="Vector_2" d="M10.5413 19.9374C5.36217 19.9374 1.14551 15.7208 1.14551 10.5416C1.14551 5.36242 5.36217 1.14575 10.5413 1.14575C15.7205 1.14575 19.9372 5.36242 19.9372 10.5416C19.9372 15.7208 15.7205 19.9374 10.5413 19.9374ZM10.5413 2.52075C6.11384 2.52075 2.52051 6.12325 2.52051 10.5416C2.52051 14.9599 6.11384 18.5624 10.5413 18.5624C14.9688 18.5624 18.5622 14.9599 18.5622 10.5416C18.5622 6.12325 14.9688 2.52075 10.5413 2.52075Z" fill="black"/>
<path id="Vector_3" d="M20.167 20.8542C19.9928 20.8542 19.8186 20.7901 19.6811 20.6526L17.8478 18.8192C17.582 18.5534 17.582 18.1134 17.8478 17.8476C18.1136 17.5817 18.5536 17.5817 18.8195 17.8476L20.6528 19.6809C20.9186 19.9467 20.9186 20.3867 20.6528 20.6526C20.5153 20.7901 20.3411 20.8542 20.167 20.8542Z" fill="black"/>
</g>
</g>
</g>
</svg>
