<svg width="22" height="22" viewBox="0 0 22 22" fill="none" xmlns="http://www.w3.org/2000/svg">
<g id="vuesax/outline/search-zoom-in">
<g id="vuesax/outline/search-zoom-in_2">
<g id="search-zoom-in">
<path id="Vector" d="M13.0169 11.4126H8.43359C8.05776 11.4126 7.74609 11.1009 7.74609 10.7251C7.74609 10.3493 8.05776 10.0376 8.43359 10.0376H13.0169C13.3928 10.0376 13.7044 10.3493 13.7044 10.7251C13.7044 11.1009 13.3928 11.4126 13.0169 11.4126Z" fill="black"/>
<path id="Vector_2" d="M10.7246 13.7042C10.3488 13.7042 10.0371 13.3925 10.0371 13.0167V8.43335C10.0371 8.05752 10.3488 7.74585 10.7246 7.74585C11.1004 7.74585 11.4121 8.05752 11.4121 8.43335V13.0167C11.4121 13.3925 11.1004 13.7042 10.7246 13.7042Z" fill="black"/>
<path id="Vector_3" d="M10.5413 19.9374C5.36217 19.9374 1.14551 15.7208 1.14551 10.5416C1.14551 5.36242 5.36217 1.14575 10.5413 1.14575C15.7205 1.14575 19.9372 5.36242 19.9372 10.5416C19.9372 15.7208 15.7205 19.9374 10.5413 19.9374ZM10.5413 2.52075C6.11384 2.52075 2.52051 6.12325 2.52051 10.5416C2.52051 14.9599 6.11384 18.5624 10.5413 18.5624C14.9688 18.5624 18.5622 14.9599 18.5622 10.5416C18.5622 6.12325 14.9688 2.52075 10.5413 2.52075Z" fill="black"/>
<path id="Vector_4" d="M20.167 20.8542C19.9928 20.8542 19.8186 20.7901 19.6811 20.6526L17.8478 18.8192C17.582 18.5534 17.582 18.1134 17.8478 17.8476C18.1136 17.5817 18.5536 17.5817 18.8195 17.8476L20.6528 19.6809C20.9186 19.9467 20.9186 20.3867 20.6528 20.6526C20.5153 20.7901 20.3411 20.8542 20.167 20.8542Z" fill="black"/>
</g>
</g>
</g>
</svg>
