<svg width="22" height="22" viewBox="0 0 22 22" fill="none" xmlns="http://www.w3.org/2000/svg">
<g id="vuesax/outline/search-normal">
<g id="vuesax/outline/search-normal_2">
<g id="search-normal">
<path id="Vector" d="M10.5416 19.9375C5.36242 19.9375 1.14575 15.7208 1.14575 10.5416C1.14575 5.36248 5.36242 1.14581 10.5416 1.14581C15.7208 1.14581 19.9374 5.36248 19.9374 10.5416C19.9374 15.7208 15.7208 19.9375 10.5416 19.9375ZM10.5416 2.52081C6.11409 2.52081 2.52075 6.12331 2.52075 10.5416C2.52075 14.96 6.11409 18.5625 10.5416 18.5625C14.9691 18.5625 18.5624 14.96 18.5624 10.5416C18.5624 6.12331 14.9691 2.52081 10.5416 2.52081Z" fill="#292D32"/>
<path id="Vector_2" d="M20.1667 20.8542C19.9926 20.8542 19.8184 20.79 19.6809 20.6525L17.8476 18.8192C17.5817 18.5533 17.5817 18.1133 17.8476 17.8475C18.1134 17.5817 18.5534 17.5817 18.8192 17.8475L20.6526 19.6808C20.9184 19.9467 20.9184 20.3867 20.6526 20.6525C20.5151 20.79 20.3409 20.8542 20.1667 20.8542Z" fill="#292D32"/>
</g>
</g>
</g>
</svg>
