<svg width="22" height="22" viewBox="0 0 22 22" fill="none" xmlns="http://www.w3.org/2000/svg">
<path d="M10.9999 20.7442C10.3857 20.7442 9.76239 20.6067 9.27656 20.3225L4.23489 17.4167C2.18156 16.0325 2.05322 15.8217 2.05322 13.6492V8.35084C2.05322 6.17834 2.17239 5.9675 4.18906 4.60167L9.26739 1.66834C10.2299 1.10917 11.7424 1.10917 12.7049 1.66834L17.7649 4.58334C19.8182 5.9675 19.9466 6.17834 19.9466 8.35084V13.64C19.9466 15.8125 19.8274 16.0233 17.8107 17.3892L12.7324 20.3225C12.2374 20.6067 11.6141 20.7442 10.9999 20.7442ZM10.9999 2.63084C10.6149 2.63084 10.2391 2.70417 9.97322 2.86L4.93156 5.775C3.43739 6.78334 3.43739 6.78334 3.43739 8.35084V13.64C3.43739 15.2075 3.43739 15.2075 4.96822 16.2433L9.97322 19.1308C10.5141 19.4425 11.4949 19.4425 12.0357 19.1308L17.0774 16.2158C18.5624 15.2075 18.5624 15.2075 18.5624 13.64V8.35084C18.5624 6.78334 18.5624 6.78334 17.0316 5.7475L12.0266 2.86C11.7607 2.70417 11.3849 2.63084 10.9999 2.63084Z" fill="#292D32"/>
<path d="M11 14.4375C9.1025 14.4375 7.5625 12.8975 7.5625 11C7.5625 9.1025 9.1025 7.5625 11 7.5625C12.8975 7.5625 14.4375 9.1025 14.4375 11C14.4375 12.8975 12.8975 14.4375 11 14.4375ZM11 8.9375C9.86333 8.9375 8.9375 9.86333 8.9375 11C8.9375 12.1367 9.86333 13.0625 11 13.0625C12.1367 13.0625 13.0625 12.1367 13.0625 11C13.0625 9.86333 12.1367 8.9375 11 8.9375Z" fill="#292D32"/>
</svg>
