<svg width="22" height="22" viewBox="0 0 22 22" fill="none" xmlns="http://www.w3.org/2000/svg">
<g id="vuesax/outline/share">
<g id="vuesax/outline/share_2">
<g id="share">
<path id="Vector" d="M18.9015 11.9808C18.5532 11.9808 18.2598 11.715 18.214 11.3666C17.994 9.29497 16.8757 7.4158 15.1523 6.22414C14.8407 6.00414 14.7673 5.58247 14.9782 5.2708C15.1982 4.95914 15.629 4.8858 15.9315 5.09664C17.9848 6.51747 19.3048 8.75414 19.5707 11.22C19.6073 11.5958 19.3415 11.935 18.9565 11.9808C18.9473 11.9808 18.9198 11.9808 18.9015 11.9808Z" fill="#292D32"/>
<path id="Vector_2" d="M3.19908 12.0267C3.17158 12.0267 3.15325 12.0267 3.12575 12.0267C2.74991 11.9808 2.47491 11.6417 2.51158 11.2658C2.75908 8.80001 4.06991 6.57251 6.09575 5.13335C6.40741 4.91335 6.83825 4.98668 7.05825 5.29835C7.27825 5.61001 7.20491 6.04085 6.89325 6.26085C5.18825 7.46168 4.08825 9.34085 3.87741 11.4125C3.84991 11.7608 3.54741 12.0267 3.19908 12.0267Z" fill="#292D32"/>
<path id="Vector_3" d="M11.0551 20.7258C9.69846 20.7258 8.40596 20.4142 7.19596 19.8092C6.8568 19.635 6.7193 19.2225 6.89346 18.8833C7.06763 18.5442 7.48013 18.4067 7.8193 18.5808C9.7993 19.58 12.1826 19.5983 14.181 18.6358C14.5201 18.4708 14.9326 18.6175 15.0976 18.9567C15.2626 19.2958 15.116 19.7083 14.7768 19.8733C13.6035 20.4417 12.3568 20.7258 11.0551 20.7258Z" fill="#292D32"/>
<path id="Vector_4" d="M11.0552 7.73668C9.26767 7.73668 7.81934 6.28835 7.81934 4.50085C7.81934 2.71335 9.26767 1.26501 11.0552 1.26501C12.8427 1.26501 14.291 2.71335 14.291 4.50085C14.291 6.28835 12.8335 7.73668 11.0552 7.73668ZM11.0552 2.64918C10.0285 2.64918 9.19434 3.48335 9.19434 4.51001C9.19434 5.53668 10.0285 6.37085 11.0552 6.37085C12.0818 6.37085 12.916 5.53668 12.916 4.51001C12.916 3.48335 12.0727 2.64918 11.0552 2.64918Z" fill="#292D32"/>
<path id="Vector_5" d="M4.42773 18.9475C2.64023 18.9475 1.19189 17.4992 1.19189 15.7117C1.19189 13.9333 2.64023 12.4758 4.42773 12.4758C6.21523 12.4758 7.66356 13.9242 7.66356 15.7117C7.66356 17.49 6.21523 18.9475 4.42773 18.9475ZM4.42773 13.8508C3.40106 13.8508 2.56689 14.685 2.56689 15.7117C2.56689 16.7383 3.40106 17.5725 4.42773 17.5725C5.45439 17.5725 6.28856 16.7383 6.28856 15.7117C6.28856 14.685 5.45439 13.8508 4.42773 13.8508Z" fill="#292D32"/>
<path id="Vector_6" d="M17.5723 18.9475C15.7848 18.9475 14.3364 17.4992 14.3364 15.7117C14.3364 13.9333 15.7848 12.4758 17.5723 12.4758C19.3598 12.4758 20.8081 13.9242 20.8081 15.7117C20.7989 17.49 19.3506 18.9475 17.5723 18.9475ZM17.5723 13.8508C16.5456 13.8508 15.7114 14.685 15.7114 15.7117C15.7114 16.7383 16.5456 17.5725 17.5723 17.5725C18.5989 17.5725 19.4331 16.7383 19.4331 15.7117C19.4239 14.685 18.5989 13.8508 17.5723 13.8508Z" fill="#292D32"/>
</g>
</g>
</g>
</svg>
