<svg xmlns="http://www.w3.org/2000/svg" width="32" height="32" viewBox="0 0 32 32" fill="none">
  <rect width="32" height="32" rx="16" fill="#3699FF"/>
  <path d="M19.5 13.5C19.5 13.1161 19.3535 12.7322 19.0607 12.4393C18.7678 12.1464 18.3839 12 18 12M18 18C20.4853 18 22.5 15.9853 22.5 13.5C22.5 11.0147 20.4853 9 18 9C15.5147 9 13.5 11.0147 13.5 13.5C13.5 13.7053 13.5137 13.9073 13.5404 14.1053C13.5841 14.4309 13.606 14.5937 13.5913 14.6967C13.5759 14.804 13.5564 14.8618 13.5035 14.9564C13.4527 15.0473 13.3633 15.1367 13.1843 15.3157L9.35147 19.1485C9.22176 19.2782 9.1569 19.3431 9.11052 19.4188C9.0694 19.4859 9.0391 19.559 9.02072 19.6356C9 19.7219 9 19.8136 9 19.9971V21.3C9 21.72 9 21.9301 9.08175 22.0905C9.15365 22.2316 9.26839 22.3463 9.40951 22.4183C9.56994 22.5 9.77996 22.5 10.2 22.5H12V21H13.5V19.5H15L16.1843 18.3157C16.3633 18.1367 16.4527 18.0473 16.5436 17.9965C16.6382 17.9436 16.696 17.9241 16.8033 17.9087C16.9063 17.894 17.0691 17.9159 17.3947 17.9596C17.5927 17.9863 17.7947 18 18 18Z" stroke="white" stroke-width="1.2" stroke-linecap="round" stroke-linejoin="round"/>
</svg>