<svg xmlns="http://www.w3.org/2000/svg" width="22" height="23" viewBox="0 0 22 23" fill="none">
<path d="M10.5418 20.4372C5.36266 20.4372 1.146 16.2205 1.146 11.0413C1.146 5.86217 5.36266 1.64551 10.5418 1.64551C15.721 1.64551 19.9377 5.86217 19.9377 11.0413C19.9377 16.2205 15.721 20.4372 10.5418 20.4372ZM10.5418 3.02051C6.11433 3.02051 2.521 6.62301 2.521 11.0413C2.521 15.4597 6.11433 19.0622 10.5418 19.0622C14.9693 19.0622 18.5627 15.4597 18.5627 11.0413C18.5627 6.62301 14.9693 3.02051 10.5418 3.02051Z" fill="#787878" />
<path d="M20.1665 21.3545C19.9923 21.3545 19.8182 21.2903 19.6807 21.1528L17.8473 19.3195C17.5815 19.0536 17.5815 18.6136 17.8473 18.3478C18.1132 18.082 18.5532 18.082 18.819 18.3478L20.6523 20.1811C20.9182 20.447 20.9182 20.887 20.6523 21.1528C20.5148 21.2903 20.3407 21.3545 20.1665 21.3545Z" fill="#787878" />
</svg>