<svg width="16" height="17" viewBox="0 0 16 17" fill="none" xmlns="http://www.w3.org/2000/svg">
<path d="M14.6668 15.6663H3.3335C1.9535 15.6663 0.833496 14.5463 0.833496 13.1663V1.83301C0.833496 1.55967 1.06016 1.33301 1.3335 1.33301C1.60683 1.33301 1.8335 1.55967 1.8335 1.83301V13.1663C1.8335 13.993 2.50683 14.6663 3.3335 14.6663H14.6668C14.9402 14.6663 15.1668 14.893 15.1668 15.1663C15.1668 15.4397 14.9402 15.6663 14.6668 15.6663Z" fill="#787878"/>
<path d="M3.33338 12.3335C3.22004 12.3335 3.10004 12.2935 3.00671 12.2135C2.80004 12.0335 2.77338 11.7202 2.95338 11.5069L6.01338 7.93354C6.34671 7.54687 6.82671 7.31354 7.33338 7.29354C7.84004 7.28021 8.34004 7.46687 8.70004 7.82687L9.33338 8.46021C9.50004 8.62687 9.72004 8.70687 9.95338 8.70687C10.1867 8.7002 10.4 8.59354 10.5534 8.41354L13.6134 4.84021C13.7934 4.63355 14.1067 4.60687 14.32 4.78687C14.5267 4.96687 14.5534 5.2802 14.3734 5.49353L11.3134 9.06688C10.98 9.45354 10.5 9.68687 9.99338 9.70687C9.48671 9.7202 8.98671 9.53355 8.62671 9.17355L8.00004 8.54021C7.83338 8.37354 7.61338 8.28688 7.38004 8.29354C7.14671 8.30021 6.93338 8.40688 6.78004 8.58688L3.72004 12.1602C3.61338 12.2735 3.47338 12.3335 3.33338 12.3335Z" fill="#787878"/>
</svg>
