<svg width="20" height="20" viewBox="0 0 20 20" fill="none" xmlns="http://www.w3.org/2000/svg">
<path d="M18.3332 18.9587H4.1665C2.4415 18.9587 1.0415 17.5587 1.0415 15.8337V1.66699C1.0415 1.32533 1.32484 1.04199 1.6665 1.04199C2.00817 1.04199 2.2915 1.32533 2.2915 1.66699V15.8337C2.2915 16.867 3.13317 17.7087 4.1665 17.7087H18.3332C18.6748 17.7087 18.9582 17.992 18.9582 18.3337C18.9582 18.6753 18.6748 18.9587 18.3332 18.9587Z" fill="black"/>
<path d="M4.16636 14.7912C4.02469 14.7912 3.87469 14.7412 3.75802 14.6412C3.49969 14.4162 3.46636 14.0245 3.69136 13.7579L7.51636 9.29119C7.93302 8.80785 8.53302 8.51619 9.16636 8.49119C9.79969 8.47453 10.4247 8.70785 10.8747 9.15785L11.6664 9.94953C11.8747 10.1579 12.1497 10.2579 12.4414 10.2579C12.733 10.2495 12.9997 10.1162 13.1914 9.89119L17.0164 5.42453C17.2414 5.1662 17.633 5.13285 17.8997 5.35785C18.158 5.58285 18.1914 5.97452 17.9664 6.24118L14.1414 10.7079C13.7247 11.1912 13.1247 11.4829 12.4914 11.5079C11.858 11.5245 11.233 11.2912 10.783 10.8412L9.99969 10.0495C9.79136 9.84119 9.51636 9.73286 9.22469 9.74119C8.93302 9.74953 8.66636 9.88286 8.47469 10.1079L4.64969 14.5745C4.51636 14.7162 4.34136 14.7912 4.16636 14.7912Z" fill="black"/>
</svg>
