<svg width="16" height="17" viewBox="0 0 16 17" fill="none" xmlns="http://www.w3.org/2000/svg">
<path d="M11 15.6668H5C2.8 15.6668 2.5 14.4668 2.5 13.1668V7.31348C2.5 7.04014 2.72667 6.81348 3 6.81348C3.27333 6.81348 3.5 7.04014 3.5 7.31348V13.1668C3.5 14.3268 3.7 14.6668 5 14.6668H11C12.3 14.6668 12.5 14.3268 12.5 13.1668V7.31348C12.5 7.04014 12.7267 6.81348 13 6.81348C13.2733 6.81348 13.5 7.04014 13.5 7.31348V13.1668C13.5 14.4668 13.2 15.6668 11 15.6668Z" fill="#787878"/>
<path d="M12.6668 7.66634H3.3335C1.72016 7.66634 0.833496 6.77967 0.833496 5.16634V3.83301C0.833496 2.21967 1.72016 1.33301 3.3335 1.33301H12.6668C14.2802 1.33301 15.1668 2.21967 15.1668 3.83301V5.16634C15.1668 6.77967 14.2802 7.66634 12.6668 7.66634ZM3.3335 2.33301C2.28016 2.33301 1.8335 2.77967 1.8335 3.83301V5.16634C1.8335 6.21967 2.28016 6.66634 3.3335 6.66634H12.6668C13.7202 6.66634 14.1668 6.21967 14.1668 5.16634V3.83301C14.1668 2.77967 13.7202 2.33301 12.6668 2.33301H3.3335Z" fill="#787878"/>
<path d="M9.21329 10.333H6.78662C6.51329 10.333 6.28662 10.1063 6.28662 9.83301C6.28662 9.55967 6.51329 9.33301 6.78662 9.33301H9.21329C9.48662 9.33301 9.71329 9.55967 9.71329 9.83301C9.71329 10.1063 9.48662 10.333 9.21329 10.333Z" fill="#787878"/>
</svg>
