<svg xmlns="http://www.w3.org/2000/svg" width="20" height="20" viewBox="0 0 20 20" fill="none">
    <path d="M8.32563 18.9585C8.15897 18.9585 8.02563 18.9252 7.92563 18.8835C7.5923 18.7585 7.02563 18.3502 7.02563 17.0585V11.6835H5.07563C3.95897 11.6835 3.55897 11.1585 3.4173 10.8502C3.27563 10.5335 3.15063 9.89187 3.88397 9.05021L10.1923 1.88352C11.0423 0.916855 11.734 0.983522 12.0673 1.10852C12.4007 1.23352 12.9673 1.64186 12.9673 2.93352V8.30852H14.9173C16.034 8.30852 16.434 8.83354 16.5757 9.14187C16.7173 9.45854 16.8423 10.1002 16.109 10.9419L9.80066 18.1085C9.20899 18.7835 8.69233 18.9585 8.32563 18.9585ZM11.609 2.28352C11.584 2.31686 11.409 2.40019 11.134 2.71686L4.82563 9.88354C4.5923 10.1502 4.55897 10.3169 4.55897 10.3502C4.57563 10.3585 4.72563 10.4419 5.07563 10.4419H7.65063C7.9923 10.4419 8.27563 10.7252 8.27563 11.0669V17.0669C8.27563 17.4835 8.35066 17.6669 8.38399 17.7169C8.40899 17.6835 8.58399 17.6002 8.85899 17.2835L15.1673 10.1169C15.4007 9.8502 15.434 9.68354 15.434 9.6502C15.4173 9.64187 15.2673 9.55854 14.9173 9.55854H12.3423C12.0007 9.55854 11.7173 9.2752 11.7173 8.93354V2.93352C11.7257 2.51686 11.6423 2.34186 11.609 2.28352Z" fill="#547AFF" />
</svg>