<svg width="16" height="17" viewBox="0 0 16 17" fill="none" xmlns="http://www.w3.org/2000/svg">
<path d="M9.61992 13.0467C9.49325 13.0467 9.36658 13.0001 9.26658 12.9001C9.07325 12.7067 9.07325 12.3867 9.26658 12.1934L12.9599 8.50008L9.26658 4.80674C9.07325 4.61341 9.07325 4.29341 9.26658 4.10008C9.45992 3.90674 9.77992 3.90674 9.97325 4.10008L14.0199 8.14674C14.2132 8.34008 14.2132 8.66008 14.0199 8.85341L9.97325 12.9001C9.87325 13.0001 9.74658 13.0467 9.61992 13.0467Z" fill="#787878"/>
<path d="M13.5535 9H2.3335C2.06016 9 1.8335 8.77333 1.8335 8.5C1.8335 8.22667 2.06016 8 2.3335 8H13.5535C13.8268 8 14.0535 8.22667 14.0535 8.5C14.0535 8.77333 13.8268 9 13.5535 9Z" fill="#787878"/>
</svg>
