<svg width="16" height="17" viewBox="0 0 16 17" fill="none" xmlns="http://www.w3.org/2000/svg">
<path d="M8.21986 14.7269C7.4932 14.7269 6.76653 14.4536 6.2132 13.9002C5.10653 12.7936 5.10653 11.0002 6.2132 9.89357L7.86653 8.2469C8.05986 8.05357 8.37986 8.05357 8.5732 8.2469C8.76653 8.44023 8.76653 8.76023 8.5732 8.95357L6.91986 10.6002C6.20653 11.3136 6.20653 12.4802 6.91986 13.1936C7.6332 13.9069 8.79986 13.9069 9.5132 13.1936L12.1065 10.6002C12.8932 9.81357 13.3265 8.7669 13.3265 7.65357C13.3265 6.54023 12.8932 5.49357 12.1065 4.7069C10.4799 3.08023 7.83986 3.08023 6.2132 4.7069L3.38653 7.53357C2.72653 8.19357 2.35986 9.07357 2.35986 10.0069C2.35986 10.9402 2.72653 11.8202 3.38653 12.4802C3.57986 12.6736 3.57986 12.9936 3.38653 13.1869C3.1932 13.3802 2.8732 13.3802 2.67986 13.1869C1.8332 12.3336 1.35986 11.2069 1.35986 10.0069C1.35986 8.8069 1.82653 7.67357 2.67986 6.8269L5.50653 4.00023C7.51986 1.9869 10.7999 1.9869 12.8132 4.00023C13.7865 4.97357 14.3265 6.27357 14.3265 7.65357C14.3265 9.03357 13.7865 10.3336 12.8132 11.3069L10.2199 13.9002C9.66653 14.4536 8.94653 14.7269 8.21986 14.7269Z" fill="#787878"/>
</svg>
