<svg width="15" height="16" viewBox="0 0 15 16" fill="none" xmlns="http://www.w3.org/2000/svg">
<path d="M3.21875 14.7188C2.9625 14.7188 2.75 14.5063 2.75 14.25V1.75C2.75 1.49375 2.9625 1.28125 3.21875 1.28125C3.475 1.28125 3.6875 1.49375 3.6875 1.75V14.25C3.6875 14.5063 3.475 14.7188 3.21875 14.7188Z" fill="#787878"/>
<path d="M10.2188 10.9688H3.21875C2.9625 10.9688 2.75 10.7563 2.75 10.5C2.75 10.2438 2.9625 10.0312 3.21875 10.0312H10.2188C10.9 10.0312 11.2188 9.85 11.2812 9.69375C11.3438 9.5375 11.25 9.1875 10.7625 8.70625L10.0125 7.95625C9.70625 7.6875 9.51875 7.28125 9.5 6.83125C9.48125 6.35625 9.66875 5.8875 10.0125 5.54375L10.7625 4.79375C11.225 4.33125 11.3688 3.95625 11.3 3.79375C11.2312 3.63125 10.875 3.46875 10.2188 3.46875H3.21875C2.95625 3.46875 2.75 3.25625 2.75 3C2.75 2.74375 2.9625 2.53125 3.21875 2.53125H10.2188C11.5875 2.53125 12.025 3.1 12.1687 3.4375C12.3062 3.775 12.4 4.4875 11.425 5.4625L10.675 6.2125C10.5188 6.36875 10.4313 6.5875 10.4375 6.80625C10.4438 6.99375 10.5188 7.1625 10.65 7.28125L11.425 8.05C12.3813 9.00625 12.2875 9.71875 12.15 10.0625C12.0063 10.3938 11.5625 10.9688 10.2188 10.9688Z" fill="#787878"/>
</svg>
