<svg width="15" height="16" viewBox="0 0 15 16" fill="none" xmlns="http://www.w3.org/2000/svg">
<path d="M5.72485 7.7625C5.7061 7.7625 5.6936 7.7625 5.67485 7.7625C5.6436 7.75625 5.59985 7.75625 5.56235 7.7625C3.74985 7.70625 2.3811 6.28125 2.3811 4.525C2.3811 2.7375 3.83735 1.28125 5.62485 1.28125C7.41235 1.28125 8.8686 2.7375 8.8686 4.525C8.86235 6.28125 7.48735 7.70625 5.7436 7.7625C5.73735 7.7625 5.7311 7.7625 5.72485 7.7625ZM5.62485 2.21875C4.3561 2.21875 3.3186 3.25625 3.3186 4.525C3.3186 5.775 4.2936 6.78125 5.53735 6.825C5.57485 6.81875 5.6561 6.81875 5.73735 6.825C6.96235 6.76875 7.92485 5.7625 7.9311 4.525C7.9311 3.25625 6.8936 2.21875 5.62485 2.21875Z" fill="#787878"/>
<path d="M10.3372 7.84375C10.3185 7.84375 10.2997 7.84375 10.281 7.8375C10.0247 7.8625 9.76223 7.68125 9.73723 7.425C9.71223 7.16875 9.86848 6.9375 10.1247 6.90625C10.1997 6.9 10.281 6.9 10.3497 6.9C11.2622 6.85 11.9747 6.1 11.9747 5.18125C11.9747 4.23125 11.206 3.4625 10.256 3.4625C9.99973 3.46875 9.78723 3.25625 9.78723 3C9.78723 2.74375 9.99973 2.53125 10.256 2.53125C11.7185 2.53125 12.9122 3.725 12.9122 5.1875C12.9122 6.625 11.7872 7.7875 10.356 7.84375C10.3497 7.84375 10.3435 7.84375 10.3372 7.84375Z" fill="#787878"/>
<path d="M5.73101 14.5937C4.50601 14.5937 3.27476 14.2812 2.34351 13.6562C1.47476 13.0812 0.999756 12.2937 0.999756 11.4375C0.999756 10.5812 1.47476 9.7875 2.34351 9.20625C4.21851 7.9625 7.25601 7.9625 9.1185 9.20625C9.981 9.78125 10.4623 10.5687 10.4623 11.425C10.4623 12.2812 9.98726 13.075 9.1185 13.6562C8.18101 14.2812 6.95601 14.5937 5.73101 14.5937ZM2.86226 9.99375C2.26226 10.3937 1.93726 10.9062 1.93726 11.4437C1.93726 11.975 2.26851 12.4875 2.86226 12.8812C4.41851 13.925 7.04351 13.925 8.59975 12.8812C9.19975 12.4812 9.52475 11.9687 9.52475 11.4312C9.52475 10.9 9.19351 10.3875 8.59975 9.99375C7.04351 8.95625 4.41851 8.95625 2.86226 9.99375Z" fill="#787878"/>
<path d="M11.4624 13.4688C11.2436 13.4688 11.0499 13.3188 11.0061 13.0938C10.9561 12.8375 11.1186 12.5938 11.3686 12.5375C11.7624 12.4563 12.1249 12.3 12.4061 12.0813C12.7624 11.8125 12.9561 11.475 12.9561 11.1188C12.9561 10.7625 12.7624 10.425 12.4124 10.1625C12.1374 9.95001 11.7936 9.80001 11.3874 9.70626C11.1374 9.65001 10.9749 9.40001 11.0311 9.14376C11.0874 8.89376 11.3374 8.73126 11.5936 8.78751C12.1311 8.90626 12.5999 9.11876 12.9811 9.41251C13.5624 9.85001 13.8936 10.4688 13.8936 11.1188C13.8936 11.7688 13.5561 12.3875 12.9749 12.8313C12.5874 13.1313 12.0999 13.35 11.5624 13.4563C11.5249 13.4688 11.4936 13.4688 11.4624 13.4688Z" fill="#787878"/>
</svg>
