<svg xmlns="http://www.w3.org/2000/svg" width="18" height="19" viewBox="0 0 18 19" fill="none">
    <path d="M9 17.6075C8.4825 17.6075 7.995 17.345 7.65 16.8875L6.525 15.3875C6.5025 15.3575 6.4125 15.32 6.375 15.3125H6C2.8725 15.3125 0.9375 14.465 0.9375 10.25V6.5C0.9375 3.185 2.685 1.4375 6 1.4375H12C15.315 1.4375 17.0625 3.185 17.0625 6.5V10.25C17.0625 13.565 15.315 15.3125 12 15.3125H11.625C11.565 15.3125 11.5125 15.3425 11.475 15.3875L10.35 16.8875C10.005 17.345 9.5175 17.6075 9 17.6075ZM6 2.5625C3.315 2.5625 2.0625 3.815 2.0625 6.5V10.25C2.0625 13.64 3.225 14.1875 6 14.1875H6.375C6.7575 14.1875 7.1925 14.405 7.425 14.7125L8.55 16.2125C8.8125 16.5575 9.1875 16.5575 9.45 16.2125L10.575 14.7125C10.8225 14.3825 11.2125 14.1875 11.625 14.1875H12C14.685 14.1875 15.9375 12.935 15.9375 10.25V6.5C15.9375 3.815 14.685 2.5625 12 2.5625H6Z" fill="#292D32" />
    <path d="M12.75 7.0625H5.25C4.9425 7.0625 4.6875 6.8075 4.6875 6.5C4.6875 6.1925 4.9425 5.9375 5.25 5.9375H12.75C13.0575 5.9375 13.3125 6.1925 13.3125 6.5C13.3125 6.8075 13.0575 7.0625 12.75 7.0625Z" fill="#292D32" />
    <path d="M9.75 10.8125H5.25C4.9425 10.8125 4.6875 10.5575 4.6875 10.25C4.6875 9.9425 4.9425 9.6875 5.25 9.6875H9.75C10.0575 9.6875 10.3125 9.9425 10.3125 10.25C10.3125 10.5575 10.0575 10.8125 9.75 10.8125Z" fill="#292D32" />
</svg>