<svg width="20" height="20" viewBox="0 0 20 20" fill="none" xmlns="http://www.w3.org/2000/svg">
<path d="M13.3333 18.9587H2.49996C1.69996 18.9587 1.04163 18.3003 1.04163 17.5003V6.66699C1.04163 2.98366 2.98329 1.04199 6.66663 1.04199H13.3333C17.0166 1.04199 18.9583 2.98366 18.9583 6.66699V13.3337C18.9583 17.017 17.0166 18.9587 13.3333 18.9587ZM6.66663 2.29199C3.68329 2.29199 2.29163 3.68366 2.29163 6.66699V17.5003C2.29163 17.617 2.38329 17.7087 2.49996 17.7087H13.3333C16.3166 17.7087 17.7083 16.317 17.7083 13.3337V6.66699C17.7083 3.68366 16.3166 2.29199 13.3333 2.29199H6.66663Z" fill="black"/>
<path d="M14.1667 8.54199H5.83337C5.49171 8.54199 5.20837 8.25866 5.20837 7.91699C5.20837 7.57533 5.49171 7.29199 5.83337 7.29199H14.1667C14.5084 7.29199 14.7917 7.57533 14.7917 7.91699C14.7917 8.25866 14.5084 8.54199 14.1667 8.54199Z" fill="black"/>
<path d="M11.6667 12.708H5.83337C5.49171 12.708 5.20837 12.4247 5.20837 12.083C5.20837 11.7413 5.49171 11.458 5.83337 11.458H11.6667C12.0084 11.458 12.2917 11.7413 12.2917 12.083C12.2917 12.4247 12.0084 12.708 11.6667 12.708Z" fill="black"/>
</svg>
