<svg width="16" height="17" viewBox="0 0 16 17" fill="none" xmlns="http://www.w3.org/2000/svg">
<path d="M10.6668 15.6663H2.00016C1.36016 15.6663 0.833496 15.1397 0.833496 14.4997V5.83301C0.833496 2.88634 2.38683 1.33301 5.3335 1.33301H10.6668C13.6135 1.33301 15.1668 2.88634 15.1668 5.83301V11.1663C15.1668 14.113 13.6135 15.6663 10.6668 15.6663ZM5.3335 2.33301C2.94683 2.33301 1.8335 3.44634 1.8335 5.83301V14.4997C1.8335 14.593 1.90683 14.6663 2.00016 14.6663H10.6668C13.0535 14.6663 14.1668 13.553 14.1668 11.1663V5.83301C14.1668 3.44634 13.0535 2.33301 10.6668 2.33301H5.3335Z" fill="#787878"/>
<path d="M11.3332 7.33301H4.6665C4.39317 7.33301 4.1665 7.10634 4.1665 6.83301C4.1665 6.55967 4.39317 6.33301 4.6665 6.33301H11.3332C11.6065 6.33301 11.8332 6.55967 11.8332 6.83301C11.8332 7.10634 11.6065 7.33301 11.3332 7.33301Z" fill="#787878"/>
<path d="M9.33317 10.667H4.6665C4.39317 10.667 4.1665 10.4403 4.1665 10.167C4.1665 9.89366 4.39317 9.66699 4.6665 9.66699H9.33317C9.6065 9.66699 9.83317 9.89366 9.83317 10.167C9.83317 10.4403 9.6065 10.667 9.33317 10.667Z" fill="#787878"/>
</svg>
