<svg width="47" height="47" viewBox="0 0 47 47" fill="none" xmlns="http://www.w3.org/2000/svg">
<rect x="23.605" width="33.0855" height="33.0855" rx="16.5428" transform="rotate(45 23.605 0)" fill="#F3F3F3"/>
<path d="M26.9907 27.7477L19.2517 20.0087C18.9872 19.7443 18.9872 19.3057 19.2517 19.0413C19.5161 18.7769 19.9546 18.7769 20.219 19.0413L27.9581 26.7803C28.2225 27.0448 28.2225 27.4833 27.9581 27.7477C27.6937 28.0121 27.2551 28.0121 26.9907 27.7477Z" fill="#292D32"/>
<path d="M19.2519 27.7477C18.9875 27.4833 18.9875 27.0448 19.2519 26.7803L26.9909 19.0413C27.2553 18.7769 27.6939 18.7769 27.9583 19.0413C28.2227 19.3057 28.2227 19.7443 27.9583 20.0087L20.2193 27.7477C19.9549 28.0121 19.5163 28.0121 19.2519 27.7477Z" fill="#292D32"/>
</svg>
