<svg width="31" height="32" viewBox="0 0 31 32" fill="none" xmlns="http://www.w3.org/2000/svg">
<rect x="0.885831" y="1.23593" width="29.5287" height="29.5276" rx="14.7638" fill="white" stroke="#EFEFEF" stroke-width="0.828925"/>
<path d="M20.025 13.5836C20.0145 13.5836 19.9988 13.5836 19.983 13.5836C17.2059 13.3053 14.4339 13.2003 11.6883 13.4786L10.6173 13.5836C10.3968 13.6046 10.2026 13.4471 10.1816 13.2266C10.1606 13.0061 10.3181 12.8171 10.5333 12.7961L11.6043 12.6911C14.3972 12.4076 17.2269 12.5178 20.0618 12.7961C20.277 12.8171 20.4345 13.0113 20.4135 13.2266C20.3978 13.4313 20.2245 13.5836 20.025 13.5836Z" fill="#292D32"/>
<path d="M13.463 13.0537C13.442 13.0537 13.421 13.0537 13.3947 13.0485C13.1847 13.0117 13.0377 12.807 13.0745 12.597L13.19 11.9092C13.274 11.4053 13.3895 10.707 14.6127 10.707H15.9882C17.2166 10.707 17.3321 11.4315 17.4109 11.9145L17.5264 12.597C17.5631 12.8122 17.4161 13.017 17.2061 13.0485C16.9909 13.0852 16.7861 12.9382 16.7546 12.7282L16.6391 12.0457C16.5656 11.589 16.5499 11.4998 15.9934 11.4998H14.6179C14.0615 11.4998 14.051 11.5733 13.9722 12.0405L13.8515 12.723C13.82 12.9172 13.652 13.0537 13.463 13.0537Z" fill="#292D32"/>
<path d="M16.9857 21.9944H13.6153C11.7831 21.9944 11.7096 20.9811 11.6518 20.1622L11.3106 14.8755C11.2948 14.6603 11.4628 14.4713 11.6781 14.4556C11.8986 14.4451 12.0823 14.6078 12.0981 14.823L12.4393 20.1097C12.4971 20.9076 12.5181 21.2069 13.6153 21.2069H16.9857C18.0882 21.2069 18.1092 20.9076 18.1617 20.1097L18.5029 14.823C18.5186 14.6078 18.7076 14.4451 18.9229 14.4556C19.1381 14.4713 19.3061 14.6551 19.2904 14.8755L18.9491 20.1622C18.8914 20.9811 18.8179 21.9944 16.9857 21.9944Z" fill="#292D32"/>
<path d="M16.1717 19.1068H14.4235C14.2083 19.1068 14.0298 18.9283 14.0298 18.7131C14.0298 18.4978 14.2083 18.3193 14.4235 18.3193H16.1717C16.387 18.3193 16.5655 18.4978 16.5655 18.7131C16.5655 18.9283 16.387 19.1068 16.1717 19.1068Z" fill="#292D32"/>
<path d="M16.6124 17.0062H13.9875C13.7722 17.0062 13.5938 16.8277 13.5938 16.6125C13.5938 16.3972 13.7722 16.2188 13.9875 16.2188H16.6124C16.8277 16.2188 17.0062 16.3972 17.0062 16.6125C17.0062 16.8277 16.8277 17.0062 16.6124 17.0062Z" fill="#292D32"/>
</svg>
