<svg width="37" height="37" viewBox="0 0 37 37" fill="none" xmlns="http://www.w3.org/2000/svg">
<rect x="0.877808" y="0.5" width="35.6222" height="35.6222" rx="17.8111" fill="white" stroke="#EFEFEF"/>
<path d="M23.9667 15.3957C23.9541 15.3957 23.9351 15.3957 23.9161 15.3957C20.5657 15.06 17.2217 14.9334 13.9094 15.269L12.6174 15.3957C12.3514 15.421 12.1171 15.231 12.0917 14.965C12.0664 14.699 12.2564 14.471 12.5161 14.4457L13.8081 14.319C17.1774 13.977 20.5911 14.11 24.0111 14.4457C24.2707 14.471 24.4607 14.7054 24.4354 14.965C24.4164 15.212 24.2074 15.3957 23.9667 15.3957Z" fill="#292D32"/>
<path d="M16.0501 14.7568C16.0247 14.7568 15.9994 14.7568 15.9677 14.7504C15.7144 14.7061 15.5371 14.4591 15.5814 14.2058L15.7207 13.3761C15.8221 12.7681 15.9614 11.9258 17.4371 11.9258H19.0964C20.5784 11.9258 20.7177 12.7998 20.8127 13.3824L20.9521 14.2058C20.9964 14.4654 20.8191 14.7124 20.5657 14.7504C20.3061 14.7948 20.0591 14.6174 20.0211 14.3641L19.8817 13.5408C19.7931 12.9898 19.7741 12.8821 19.1027 12.8821H17.4434C16.7721 12.8821 16.7594 12.9708 16.6644 13.5344L16.5187 14.3578C16.4807 14.5921 16.2781 14.7568 16.0501 14.7568Z" fill="#292D32"/>
<path d="M20.2997 25.5425H16.2337C14.0234 25.5425 13.9347 24.3202 13.865 23.3322L13.4534 16.9545C13.4344 16.6948 13.637 16.4668 13.8967 16.4478C14.1627 16.4352 14.3844 16.6315 14.4034 16.8912L14.815 23.2688C14.8847 24.2315 14.91 24.5925 16.2337 24.5925H20.2997C21.6297 24.5925 21.6551 24.2315 21.7184 23.2688L22.13 16.8912C22.149 16.6315 22.377 16.4352 22.6367 16.4478C22.8964 16.4668 23.099 16.6885 23.0801 16.9545L22.6684 23.3322C22.5987 24.3202 22.51 25.5425 20.2997 25.5425Z" fill="#292D32"/>
<path d="M19.3181 22.0584H17.2091C16.9495 22.0584 16.7341 21.8431 16.7341 21.5834C16.7341 21.3237 16.9495 21.1084 17.2091 21.1084H19.3181C19.5778 21.1084 19.7931 21.3237 19.7931 21.5834C19.7931 21.8431 19.5778 22.0584 19.3181 22.0584Z" fill="#292D32"/>
<path d="M19.85 19.5252H16.6834C16.4237 19.5252 16.2084 19.3099 16.2084 19.0502C16.2084 18.7905 16.4237 18.5752 16.6834 18.5752H19.85C20.1097 18.5752 20.325 18.7905 20.325 19.0502C20.325 19.3099 20.1097 19.5252 19.85 19.5252Z" fill="#292D32"/>
</svg>
