<svg width="32" height="32" viewBox="0 0 32 32" fill="none" xmlns="http://www.w3.org/2000/svg">
<rect x="1.18612" y="1.23593" width="29.5287" height="29.5276" rx="14.7638" fill="white" stroke="#EFEFEF" stroke-width="0.828925"/>
<path d="M17.8663 21.7025H14.3347C11.6751 21.7025 10.5376 20.565 10.5376 17.9055V17.835C10.5376 15.43 11.4855 14.2709 13.6088 14.0705C13.8255 14.0542 14.0313 14.2167 14.053 14.4388C14.0747 14.6609 13.9122 14.8613 13.6847 14.883C11.9838 15.04 11.3501 15.8417 11.3501 17.8405V17.9109C11.3501 20.1155 12.1301 20.8955 14.3347 20.8955H17.8663C20.0709 20.8955 20.8509 20.1155 20.8509 17.9109V17.8405C20.8509 15.8309 20.2063 15.0292 18.473 14.883C18.2509 14.8613 18.083 14.6663 18.1047 14.4442C18.1263 14.2221 18.3159 14.0542 18.5434 14.0759C20.6993 14.26 21.6634 15.4246 21.6634 17.8459V17.9163C21.6634 20.565 20.5259 21.7025 17.8663 21.7025Z" fill="#292D32"/>
<path d="M16.1006 18.1163C15.8785 18.1163 15.6943 17.9321 15.6943 17.7101V10.7334C15.6943 10.5113 15.8785 10.3271 16.1006 10.3271C16.3227 10.3271 16.5068 10.5113 16.5068 10.7334V17.7101C16.5068 17.9376 16.3227 18.1163 16.1006 18.1163Z" fill="#292D32"/>
<path d="M16.1008 18.7234C15.9979 18.7234 15.895 18.6855 15.8137 18.6042L13.9992 16.7896C13.8421 16.6326 13.8421 16.3726 13.9992 16.2155C14.1562 16.0584 14.4162 16.0584 14.5733 16.2155L16.1008 17.743L17.6283 16.2155C17.7854 16.0584 18.0454 16.0584 18.2025 16.2155C18.3596 16.3726 18.3596 16.6326 18.2025 16.7896L16.3879 18.6042C16.3067 18.6855 16.2037 18.7234 16.1008 18.7234Z" fill="#292D32"/>
</svg>
