<svg xmlns="http://www.w3.org/2000/svg" width="17" height="17" viewBox="0 0 17 17" fill="none">
    <path d="M9.79437 3.91769C9.79437 4.64349 9.20601 5.23187 8.48019 5.23187C7.75437 5.23187 7.16602 4.64349 7.16602 3.91769C7.16602 3.19189 7.75437 2.60352 8.48019 2.60352C9.20601 2.60352 9.79437 3.19189 9.79437 3.91769Z" fill="#787878" />
    <path d="M9.79437 8.51632C9.79437 9.24214 9.20601 9.8305 8.48019 9.8305C7.75437 9.8305 7.16602 9.24214 7.16602 8.51632C7.16602 7.7905 7.75437 7.20215 8.48019 7.20215C9.20601 7.20215 9.79437 7.7905 9.79437 8.51632Z" fill="#787878" />
    <path d="M8.48019 14.4301C9.20601 14.4301 9.79437 13.8418 9.79437 13.1159C9.79437 12.3901 9.20601 11.8018 8.48019 11.8018C7.75437 11.8018 7.16602 12.3901 7.16602 13.1159C7.16602 13.8418 7.75437 14.4301 8.48019 14.4301Z" fill="#787878" />
</svg>