<svg width="16" height="17" viewBox="0 0 16 17" fill="none" xmlns="http://www.w3.org/2000/svg">
<path d="M3.69332 13.5137C3.28666 13.5137 2.90666 13.3737 2.63332 13.1137C2.28666 12.787 2.11999 12.2937 2.17999 11.7604L2.42666 9.60036C2.47332 9.19369 2.71999 8.65369 3.00666 8.36036L8.47999 2.56702C9.84666 1.12036 11.2733 1.08036 12.72 2.44703C14.1667 3.81369 14.2067 5.24036 12.84 6.68702L7.36666 12.4804C7.08666 12.7804 6.56666 13.0604 6.15999 13.127L4.01332 13.4937C3.89999 13.5004 3.79999 13.5137 3.69332 13.5137ZM10.62 2.44036C10.1067 2.44036 9.65999 2.76036 9.20666 3.24036L3.73332 9.04036C3.59999 9.18036 3.44666 9.51369 3.41999 9.70703L3.17332 11.867C3.14666 12.087 3.19999 12.267 3.31999 12.3804C3.43999 12.4937 3.61999 12.5337 3.83999 12.5004L5.98666 12.1337C6.17999 12.1004 6.49999 11.927 6.63332 11.787L12.1067 5.99369C12.9333 5.11369 13.2333 4.30036 12.0267 3.16702C11.4933 2.65369 11.0333 2.44036 10.62 2.44036Z" fill="#292D32"/>
<path d="M11.56 7.80022C11.5466 7.80022 11.5266 7.80022 11.5133 7.80022C9.4333 7.59356 7.75996 6.01356 7.43996 3.94689C7.39996 3.67356 7.58663 3.42023 7.85996 3.37356C8.1333 3.33356 8.38663 3.52023 8.4333 3.79356C8.68663 5.40689 9.9933 6.64689 11.62 6.80689C11.8933 6.83356 12.0933 7.08022 12.0666 7.35356C12.0333 7.60689 11.8133 7.80022 11.56 7.80022Z" fill="#292D32"/>
<path d="M14 15.667H2C1.72667 15.667 1.5 15.4403 1.5 15.167C1.5 14.8937 1.72667 14.667 2 14.667H14C14.2733 14.667 14.5 14.8937 14.5 15.167C14.5 15.4403 14.2733 15.667 14 15.667Z" fill="#292D32"/>
</svg>
