<svg width="37" height="37" viewBox="0 0 37 37" fill="none" xmlns="http://www.w3.org/2000/svg">
<rect x="0.499878" y="0.5" width="35.6222" height="35.6222" rx="17.8111" fill="white" stroke="#EFEFEF"/>
<path d="M13.7975 23.4965C13.4111 23.4965 13.0501 23.3635 12.7905 23.1165C12.4611 22.8062 12.3028 22.3375 12.3598 21.8308L12.5941 19.7788C12.6385 19.3925 12.8728 18.8795 13.1451 18.6008L18.3448 13.0972C19.6431 11.7228 20.9985 11.6848 22.3728 12.9832C23.7471 14.2815 23.7851 15.6368 22.4868 17.0112L17.2871 22.5148C17.0211 22.7998 16.5271 23.0658 16.1408 23.1292L14.1015 23.4775C13.9938 23.4838 13.8988 23.4965 13.7975 23.4965ZM20.3778 12.9768C19.8901 12.9768 19.4658 13.2808 19.0351 13.7368L13.8355 19.2468C13.7088 19.3798 13.5631 19.6965 13.5378 19.8802L13.3035 21.9322C13.2781 22.1412 13.3288 22.3122 13.4428 22.4198C13.5568 22.5275 13.7278 22.5655 13.9368 22.5338L15.9761 22.1855C16.1598 22.1538 16.4638 21.9892 16.5905 21.8562L21.7901 16.3525C22.5755 15.5165 22.8605 14.7438 21.7141 13.6672C21.2075 13.1795 20.7705 12.9768 20.3778 12.9768Z" fill="#292D32"/>
<path d="M21.2708 18.0689C21.2581 18.0689 21.2391 18.0689 21.2265 18.0689C19.2505 17.8725 17.6608 16.3715 17.3568 14.4082C17.3188 14.1485 17.4961 13.9079 17.7558 13.8635C18.0155 13.8255 18.2561 14.0029 18.3005 14.2625C18.5411 15.7952 19.7825 16.9732 21.3278 17.1252C21.5875 17.1505 21.7775 17.3849 21.7521 17.6445C21.7205 17.8852 21.5115 18.0689 21.2708 18.0689Z" fill="#292D32"/>
<path d="M23.5889 25.5418H12.1889C11.9292 25.5418 11.7139 25.3265 11.7139 25.0668C11.7139 24.8071 11.9292 24.5918 12.1889 24.5918H23.5889C23.8485 24.5918 24.0639 24.8071 24.0639 25.0668C24.0639 25.3265 23.8485 25.5418 23.5889 25.5418Z" fill="#292D32"/>
</svg>
