<svg width="45" height="45" viewBox="0 0 45 45" fill="none" xmlns="http://www.w3.org/2000/svg">
<rect width="45" height="45" rx="22.5" fill="#C9F7F5"/>
<path d="M24.9998 31.4587H19.9998C15.4748 31.4587 13.5415 29.5253 13.5415 25.0003V20.0003C13.5415 15.4753 15.4748 13.542 19.9998 13.542H21.6665C22.0082 13.542 22.2915 13.8253 22.2915 14.167C22.2915 14.5087 22.0082 14.792 21.6665 14.792H19.9998C16.1582 14.792 14.7915 16.1587 14.7915 20.0003V25.0003C14.7915 28.842 16.1582 30.2087 19.9998 30.2087H24.9998C28.8415 30.2087 30.2082 28.842 30.2082 25.0003V23.3337C30.2082 22.992 30.4915 22.7087 30.8332 22.7087C31.1748 22.7087 31.4582 22.992 31.4582 23.3337V25.0003C31.4582 29.5253 29.5248 31.4587 24.9998 31.4587Z" fill="#1BC5BC"/>
<path d="M19.5831 27.2415C19.0748 27.2415 18.6081 27.0581 18.2664 26.7248C17.8581 26.3165 17.6831 25.7248 17.7748 25.0998L18.1331 22.5915C18.1998 22.1081 18.5164 21.4831 18.8581 21.1415L25.4248 14.5748C27.0831 12.9165 28.7664 12.9165 30.4248 14.5748C31.3331 15.4831 31.7414 16.4081 31.6581 17.3331C31.5831 18.0831 31.1831 18.8165 30.4248 19.5665L23.8581 26.1331C23.5164 26.4748 22.8914 26.7915 22.4081 26.8581L19.8998 27.2165C19.7914 27.2415 19.6831 27.2415 19.5831 27.2415ZM26.3081 15.4581L19.7414 22.0248C19.5831 22.1831 19.3998 22.5498 19.3664 22.7665L19.0081 25.2748C18.9748 25.5165 19.0248 25.7165 19.1498 25.8415C19.2748 25.9665 19.4748 26.0165 19.7164 25.9831L22.2248 25.6248C22.4414 25.5915 22.8164 25.4081 22.9664 25.2498L29.5331 18.6831C30.0748 18.1415 30.3581 17.6581 30.3998 17.2081C30.4498 16.6665 30.1664 16.0915 29.5331 15.4498C28.1998 14.1165 27.2831 14.4915 26.3081 15.4581Z" fill="#1BC5BC"/>
<path d="M29.0418 20.6912C28.9835 20.6912 28.9251 20.6829 28.8751 20.6662C26.6835 20.0496 24.9418 18.3079 24.3251 16.1162C24.2335 15.7829 24.4251 15.4412 24.7585 15.3412C25.0918 15.2496 25.4335 15.4412 25.5251 15.7746C26.0251 17.5496 27.4335 18.9579 29.2085 19.4579C29.5418 19.5496 29.7335 19.8996 29.6418 20.2329C29.5668 20.5162 29.3168 20.6912 29.0418 20.6912Z" fill="#1BC5BC"/>
</svg>
