<svg width="16" height="17" viewBox="0 0 16 17" fill="none" xmlns="http://www.w3.org/2000/svg">
<path d="M9.62651 5.33293C9.49984 5.33293 9.37318 5.28626 9.27318 5.18626L7.91984 3.83293L6.56651 5.18626C6.37318 5.3796 6.05318 5.3796 5.85984 5.18626C5.66651 4.99293 5.66651 4.67293 5.85984 4.4796L7.56651 2.77293C7.75984 2.5796 8.07984 2.5796 8.27318 2.77293L9.97984 4.4796C10.1732 4.67293 10.1732 4.99293 9.97984 5.18626C9.87984 5.28626 9.75318 5.33293 9.62651 5.33293Z" fill="#787878"/>
<path d="M7.91992 10.4529C7.64659 10.4529 7.41992 10.2262 7.41992 9.95285V3.17285C7.41992 2.89952 7.64659 2.67285 7.91992 2.67285C8.19326 2.67285 8.41992 2.89952 8.41992 3.17285V9.95285C8.41992 10.2329 8.19326 10.4529 7.91992 10.4529Z" fill="#787878"/>
<path d="M7.99984 14.3333C4.5665 14.3333 2.1665 11.9333 2.1665 8.5C2.1665 8.22667 2.39317 8 2.6665 8C2.93984 8 3.1665 8.22667 3.1665 8.5C3.1665 11.3467 5.15317 13.3333 7.99984 13.3333C10.8465 13.3333 12.8332 11.3467 12.8332 8.5C12.8332 8.22667 13.0598 8 13.3332 8C13.6065 8 13.8332 8.22667 13.8332 8.5C13.8332 11.9333 11.4332 14.3333 7.99984 14.3333Z" fill="#787878"/>
</svg>
