<svg width="45" height="45" viewBox="0 0 45 45" fill="none" xmlns="http://www.w3.org/2000/svg">
<rect width="45" height="45" rx="22.5" fill="#E1FFEB"/>
<path d="M22.5584 30.8171C21.3834 30.8171 20.2001 30.3671 19.3084 29.4754L15.5334 25.7004C14.6167 24.7837 14.1334 23.5171 14.1917 22.2254L14.3917 18.0587C14.4834 16.0671 16.0584 14.4921 18.0584 14.3921L22.2251 14.1921C23.5167 14.1421 24.7834 14.6171 25.7001 15.5337L29.4751 19.3087C31.2667 21.1004 31.2667 24.0254 29.4751 25.8171L25.8167 29.4754C24.9167 30.3671 23.7417 30.8171 22.5584 30.8171ZM16.4167 24.8087L20.1917 28.5837C20.8251 29.2171 21.6667 29.5671 22.5584 29.5671C23.4501 29.5671 24.2917 29.2171 24.9251 28.5837L28.5834 24.9254C29.2167 24.2921 29.5667 23.4504 29.5667 22.5587C29.5667 21.6671 29.2167 20.8254 28.5834 20.1921L24.8084 16.4171C24.1417 15.7504 23.2167 15.3921 22.2834 15.4421L18.1167 15.6421C16.7584 15.7004 15.7001 16.7587 15.6334 18.1087L15.4334 22.2754C15.3917 23.2171 15.7501 24.1421 16.4167 24.8087Z" fill="#37A55B"/>
<path d="M20.4168 23.1247C18.9252 23.1247 17.7085 21.908 17.7085 20.4163C17.7085 18.9247 18.9252 17.708 20.4168 17.708C21.9085 17.708 23.1252 18.9247 23.1252 20.4163C23.1252 21.908 21.9085 23.1247 20.4168 23.1247ZM20.4168 18.958C19.6168 18.958 18.9585 19.6163 18.9585 20.4163C18.9585 21.2163 19.6168 21.8747 20.4168 21.8747C21.2168 21.8747 21.8752 21.2163 21.8752 20.4163C21.8752 19.6163 21.2168 18.958 20.4168 18.958Z" fill="#37A55B"/>
</svg>
