<svg width="17" height="17" viewBox="0 0 17 17" fill="none" xmlns="http://www.w3.org/2000/svg">
<path d="M14.21 6.89453C13.9366 6.89453 13.71 6.66786 13.71 6.39453V2.89453H10.21C9.93663 2.89453 9.70996 2.66786 9.70996 2.39453C9.70996 2.1212 9.93663 1.89453 10.21 1.89453H14.21C14.4833 1.89453 14.71 2.1212 14.71 2.39453V6.39453C14.71 6.66786 14.4833 6.89453 14.21 6.89453Z" fill="#292D32"/>
<path d="M6.20996 14.8945H2.20996C1.93663 14.8945 1.70996 14.6679 1.70996 14.3945V10.3945C1.70996 10.1212 1.93663 9.89453 2.20996 9.89453C2.48329 9.89453 2.70996 10.1212 2.70996 10.3945V13.8945H6.20996C6.48329 13.8945 6.70996 14.1212 6.70996 14.3945C6.70996 14.6679 6.48329 14.8945 6.20996 14.8945Z" fill="#292D32"/>
<path d="M9.20976 7.89482C9.08309 7.89482 8.95643 7.84815 8.85643 7.74815C8.66309 7.55482 8.66309 7.23482 8.85643 7.04148L13.8564 2.04148C14.0498 1.84815 14.3698 1.84815 14.5631 2.04148C14.7564 2.23482 14.7564 2.55482 14.5631 2.74815L9.56309 7.74815C9.46309 7.84815 9.33643 7.89482 9.20976 7.89482Z" fill="#292D32"/>
<path d="M2.20976 14.8948C2.08309 14.8948 1.95643 14.8482 1.85643 14.7482C1.66309 14.5548 1.66309 14.2348 1.85643 14.0415L6.85643 9.04148C7.04976 8.84815 7.36976 8.84815 7.56309 9.04148C7.75643 9.23482 7.75643 9.55482 7.56309 9.74815L2.56309 14.7482C2.46309 14.8482 2.33643 14.8948 2.20976 14.8948Z" fill="#292D32"/>
</svg>
