<svg width="12" height="12" viewBox="0 0 12 12" fill="none" xmlns="http://www.w3.org/2000/svg">
<path d="M7.07035 6.00008L11.9216 1.14912C12.026 1.04457 12.026 0.875177 11.9216 0.770631L11.2297 0.0783779C11.1795 0.0283172 11.1112 0 11.0403 0C10.9693 0 10.9011 0.0283172 10.8509 0.0783779L5.99986 4.92946L1.14877 0.0783779C1.04827 -0.0221228 0.870405 -0.0219964 0.770157 0.0783779L0.0784095 0.770631C-0.0261365 0.875177 -0.0261365 1.04457 0.0784095 1.14912L4.92949 6.00008L0.0784095 10.851C-0.0261365 10.9556 -0.0261365 11.125 0.0784095 11.2295L0.770284 11.9218C0.820471 11.9718 0.888609 12.0002 0.959655 12.0002C1.0307 12.0002 1.09871 11.9718 1.1489 11.9218L5.99998 7.0707L10.8511 11.9218C10.9013 11.9718 10.9695 12.0002 11.0404 12.0002C11.1114 12.0002 11.1796 11.9718 11.2298 11.9218L11.9217 11.2295C12.0261 11.125 12.0261 10.9556 11.9217 10.851L7.07035 6.00008Z" fill="black"/>
</svg>
