<svg width="45" height="45" viewBox="0 0 45 45" fill="none" xmlns="http://www.w3.org/2000/svg">
<rect width="45" height="45" rx="22.5" fill="#FFE2E6"/>
<path d="M30.8317 31.4616H16.665C14.94 31.4616 13.54 30.0616 13.54 28.3366V14.1699C13.54 13.8283 13.8234 13.5449 14.165 13.5449C14.5067 13.5449 14.79 13.8283 14.79 14.1699V28.3366C14.79 29.3699 15.6317 30.2116 16.665 30.2116H30.8317C31.1734 30.2116 31.4567 30.4949 31.4567 30.8366C31.4567 31.1782 31.1734 31.4616 30.8317 31.4616Z" fill="#F65464"/>
<path d="M16.6649 27.2892C16.5232 27.2892 16.3732 27.2392 16.2566 27.1392C15.9982 26.9142 15.9649 26.5226 16.1899 26.2559L20.0149 21.7892C20.4316 21.3059 21.0316 21.0142 21.6649 20.9892C22.2982 20.9726 22.9232 21.2059 23.3732 21.6559L24.1649 22.4476C24.3732 22.6559 24.6482 22.7559 24.9399 22.7559C25.2316 22.7476 25.4982 22.6142 25.6899 22.3892L29.5149 17.9226C29.7399 17.6642 30.1316 17.6309 30.3982 17.8559C30.6566 18.0809 30.6899 18.4726 30.4649 18.7392L26.6399 23.2059C26.2232 23.6892 25.6232 23.9809 24.9899 24.0059C24.3566 24.0226 23.7316 23.7892 23.2816 23.3392L22.4982 22.5476C22.2899 22.3392 22.0149 22.2309 21.7232 22.2392C21.4316 22.2476 21.1649 22.3809 20.9732 22.6059L17.1482 27.0726C17.0149 27.2142 16.8399 27.2892 16.6649 27.2892Z" fill="#F65464"/>
</svg>
