<svg width="29" height="29" viewBox="0 0 29 29" fill="none" xmlns="http://www.w3.org/2000/svg">
<rect x="0.5" y="0.5" width="28" height="28" rx="14" fill="white"/>
<rect x="0.5" y="0.5" width="28" height="28" rx="14" stroke="#EFEFEF"/>
<path d="M18.25 14.9688H10.75C10.4938 14.9688 10.2812 14.7562 10.2812 14.5C10.2812 14.2438 10.4938 14.0312 10.75 14.0312H18.25C18.5062 14.0312 18.7188 14.2438 18.7188 14.5C18.7188 14.7562 18.5062 14.9688 18.25 14.9688Z" fill="#292D32"/>
<path d="M14.5 18.7188C14.2438 18.7188 14.0312 18.5062 14.0312 18.25V10.75C14.0312 10.4938 14.2438 10.2812 14.5 10.2812C14.7562 10.2812 14.9688 10.4938 14.9688 10.75V18.25C14.9688 18.5062 14.7562 18.7188 14.5 18.7188Z" fill="#292D32"/>
</svg>
