<svg width="45" height="45" viewBox="0 0 45 45" fill="none" xmlns="http://www.w3.org/2000/svg">
<rect width="45" height="45" rx="22.5" fill="#EEE5FF"/>
<path d="M24.9998 31.4587H19.9998C15.4748 31.4587 13.5415 29.5253 13.5415 25.0003V20.0003C13.5415 15.4753 15.4748 13.542 19.9998 13.542H24.9998C29.5248 13.542 31.4582 15.4753 31.4582 20.0003V25.0003C31.4582 29.5253 29.5248 31.4587 24.9998 31.4587ZM19.9998 14.792C16.1582 14.792 14.7915 16.1587 14.7915 20.0003V25.0003C14.7915 28.842 16.1582 30.2087 19.9998 30.2087H24.9998C28.8415 30.2087 30.2082 28.842 30.2082 25.0003V20.0003C30.2082 16.1587 28.8415 14.792 24.9998 14.792H19.9998Z" fill="#8A50FC"/>
<path d="M19.7335 25.2749C19.3835 25.2749 19.0585 25.1915 18.7752 25.0332C18.0835 24.6415 17.7085 23.8665 17.7085 22.8499V14.5332C17.7085 14.1915 17.9918 13.9082 18.3335 13.9082C18.6752 13.9082 18.9585 14.1915 18.9585 14.5332V22.8499C18.9585 23.3915 19.1168 23.7915 19.3918 23.9415C19.6835 24.1082 20.1335 24.0249 20.6252 23.7332L21.7252 23.0749C22.1752 22.8082 22.8168 22.8082 23.2668 23.0749L24.3668 23.7332C24.8668 24.0332 25.3168 24.1082 25.6002 23.9415C25.8752 23.7832 26.0335 23.3832 26.0335 22.8499V14.5332C26.0335 14.1915 26.3168 13.9082 26.6585 13.9082C27.0002 13.9082 27.2835 14.1915 27.2835 14.5332V22.8499C27.2835 23.8665 26.9085 24.6415 26.2168 25.0332C25.5252 25.4249 24.6168 25.3415 23.7252 24.8082L22.6252 24.1499C22.5752 24.1165 22.4168 24.1165 22.3668 24.1499L21.2668 24.8082C20.7502 25.1165 20.2168 25.2749 19.7335 25.2749Z" fill="#8A50FC"/>
<path d="M24.9998 31.4587H19.9998C15.4748 31.4587 13.5415 29.5253 13.5415 25.0003V20.0003C13.5415 15.4753 15.4748 13.542 19.9998 13.542H24.9998C29.5248 13.542 31.4582 15.4753 31.4582 20.0003V25.0003C31.4582 29.5253 29.5248 31.4587 24.9998 31.4587ZM19.9998 14.792C16.1582 14.792 14.7915 16.1587 14.7915 20.0003V25.0003C14.7915 28.842 16.1582 30.2087 19.9998 30.2087H24.9998C28.8415 30.2087 30.2082 28.842 30.2082 25.0003V20.0003C30.2082 16.1587 28.8415 14.792 24.9998 14.792H19.9998Z" fill="#8A50FC"/>
<path d="M19.7335 25.2749C19.3835 25.2749 19.0585 25.1915 18.7752 25.0332C18.0835 24.6415 17.7085 23.8665 17.7085 22.8499V14.5332C17.7085 14.1915 17.9918 13.9082 18.3335 13.9082C18.6752 13.9082 18.9585 14.1915 18.9585 14.5332V22.8499C18.9585 23.3915 19.1168 23.7915 19.3918 23.9415C19.6835 24.1082 20.1335 24.0249 20.6252 23.7332L21.7252 23.0749C22.1752 22.8082 22.8168 22.8082 23.2668 23.0749L24.3668 23.7332C24.8668 24.0332 25.3168 24.1082 25.6002 23.9415C25.8752 23.7832 26.0335 23.3832 26.0335 22.8499V14.5332C26.0335 14.1915 26.3168 13.9082 26.6585 13.9082C27.0002 13.9082 27.2835 14.1915 27.2835 14.5332V22.8499C27.2835 23.8665 26.9085 24.6415 26.2168 25.0332C25.5252 25.4249 24.6168 25.3415 23.7252 24.8082L22.6252 24.1499C22.5752 24.1165 22.4168 24.1165 22.3668 24.1499L21.2668 24.8082C20.7502 25.1165 20.2168 25.2749 19.7335 25.2749Z" fill="#8A50FC"/>
</svg>
