<svg width="45" height="45" viewBox="0 0 45 45" fill="none" xmlns="http://www.w3.org/2000/svg">
<rect width="45" height="45" rx="22.5" fill="#E1F0FF"/>
<path d="M27.7667 23.1254H25C22.925 23.1254 21.875 21.9504 21.875 19.6254V17.2337C21.875 16.3837 21.975 15.167 22.8583 14.5004C23.6 13.9504 24.6667 13.9087 26.2417 14.367C28.3083 14.967 30.0333 16.692 30.6333 18.7587C31.0917 20.3254 31.05 21.4004 30.5 22.1337C29.8333 23.0254 28.6167 23.1254 27.7667 23.1254ZM24.4 15.3004C24.0583 15.3004 23.7917 15.367 23.6167 15.5004C23.2917 15.742 23.1333 16.3087 23.1333 17.2337V19.6337C23.1333 21.5004 23.85 21.8837 25.0083 21.8837H27.775C28.6917 21.8837 29.2583 21.7254 29.5083 21.4004C29.8 21.017 29.775 20.2504 29.45 19.1254C28.9667 17.4837 27.55 16.0587 25.9083 15.5837C25.2917 15.392 24.7917 15.3004 24.4 15.3004Z" fill="#3699FF"/>
<path d="M21.7237 31.4573C21.282 31.4573 20.832 31.424 20.382 31.349C16.9737 30.799 14.1987 28.0323 13.6487 24.624C12.9403 20.2406 15.7653 16.1073 20.0903 15.224C20.432 15.1573 20.757 15.374 20.832 15.7073C20.8987 16.049 20.682 16.374 20.3487 16.449C16.6903 17.199 14.2903 20.699 14.8987 24.424C15.3653 27.3073 17.707 29.649 20.5903 30.1156C24.332 30.7156 27.8237 28.3073 28.5653 24.6323C28.632 24.2906 28.9653 24.074 29.2987 24.1406C29.6403 24.2073 29.857 24.5406 29.7903 24.874C28.9987 28.7656 25.5987 31.4573 21.7237 31.4573Z" fill="#3699FF"/>
</svg>
