<svg width="16" height="17" viewBox="0 0 16 17" fill="none" xmlns="http://www.w3.org/2000/svg">
<path d="M13.7466 9.21291C13.4933 9.21291 13.2799 9.01958 13.2466 8.76625C13.0866 7.25958 12.2733 5.89291 11.0199 5.02625C10.7933 4.86625 10.7399 4.55958 10.8933 4.33291C11.0533 4.10625 11.3666 4.05291 11.5866 4.20625C13.0799 5.23958 14.0399 6.86625 14.2333 8.65958C14.2599 8.93291 14.0666 9.17958 13.7866 9.21291C13.7799 9.21291 13.7599 9.21291 13.7466 9.21291Z" fill="#787878"/>
<path d="M2.3266 9.24619C2.3066 9.24619 2.29327 9.24619 2.27327 9.24619C1.99994 9.21285 1.79994 8.96619 1.8266 8.69285C2.0066 6.89952 2.95994 5.27952 4.43327 4.23285C4.65994 4.07285 4.97327 4.12619 5.13327 4.35285C5.29327 4.57952 5.23994 4.89285 5.01327 5.05285C3.77327 5.92619 2.97327 7.29285 2.81994 8.79952C2.79994 9.05285 2.57994 9.24619 2.3266 9.24619Z" fill="#787878"/>
<path d="M8.04014 15.573C7.05347 15.573 6.11347 15.3463 5.23347 14.9063C4.98681 14.7797 4.88681 14.4797 5.01347 14.233C5.14014 13.9863 5.44014 13.8863 5.68681 14.013C7.12681 14.7397 8.86014 14.753 10.3135 14.053C10.5601 13.933 10.8601 14.0397 10.9801 14.2863C11.1001 14.533 10.9935 14.833 10.7468 14.953C9.89347 15.3663 8.98681 15.573 8.04014 15.573Z" fill="#787878"/>
<path d="M8.03986 6.12659C6.73986 6.12659 5.68652 5.07326 5.68652 3.77326C5.68652 2.47326 6.73986 1.41992 8.03986 1.41992C9.33986 1.41992 10.3932 2.47326 10.3932 3.77326C10.3932 5.07326 9.33319 6.12659 8.03986 6.12659ZM8.03986 2.42659C7.29319 2.42659 6.68652 3.03326 6.68652 3.77992C6.68652 4.52659 7.29319 5.13326 8.03986 5.13326C8.78652 5.13326 9.39319 4.52659 9.39319 3.77992C9.39319 3.03326 8.77986 2.42659 8.03986 2.42659Z" fill="#787878"/>
<path d="M3.22003 14.2799C1.92003 14.2799 0.866699 13.2266 0.866699 11.9266C0.866699 10.6332 1.92003 9.57324 3.22003 9.57324C4.52003 9.57324 5.57337 10.6266 5.57337 11.9266C5.57337 13.2199 4.52003 14.2799 3.22003 14.2799ZM3.22003 10.5732C2.47337 10.5732 1.8667 11.1799 1.8667 11.9266C1.8667 12.6732 2.47337 13.2799 3.22003 13.2799C3.9667 13.2799 4.57337 12.6732 4.57337 11.9266C4.57337 11.1799 3.9667 10.5732 3.22003 10.5732Z" fill="#787878"/>
<path d="M12.7801 14.2799C11.4801 14.2799 10.4268 13.2266 10.4268 11.9266C10.4268 10.6332 11.4801 9.57324 12.7801 9.57324C14.0801 9.57324 15.1334 10.6266 15.1334 11.9266C15.1268 13.2199 14.0734 14.2799 12.7801 14.2799ZM12.7801 10.5732C12.0334 10.5732 11.4268 11.1799 11.4268 11.9266C11.4268 12.6732 12.0334 13.2799 12.7801 13.2799C13.5268 13.2799 14.1334 12.6732 14.1334 11.9266C14.1268 11.1799 13.5268 10.5732 12.7801 10.5732Z" fill="#787878"/>
</svg>
