<svg xmlns="http://www.w3.org/2000/svg" width="32" height="32" viewBox="0 0 32 32" fill="none">
  <rect width="32" height="32" rx="16" fill="#3699FF"/>
  <path d="M25 16H21.4M10.6 16H7M16 10.6V7M16 25V21.4M23.2 16C23.2 19.9765 19.9765 23.2 16 23.2C12.0235 23.2 8.8 19.9765 8.8 16C8.8 12.0235 12.0235 8.8 16 8.8C19.9765 8.8 23.2 12.0235 23.2 16ZM18.7 16C18.7 17.4912 17.4912 18.7 16 18.7C14.5088 18.7 13.3 17.4912 13.3 16C13.3 14.5088 14.5088 13.3 16 13.3C17.4912 13.3 18.7 14.5088 18.7 16Z" stroke="white" stroke-width="1.2" stroke-linecap="round" stroke-linejoin="round"/>
</svg>