<svg xmlns="http://www.w3.org/2000/svg" width="32" height="32" viewBox="0 0 32 32" fill="none">
  <rect width="32" height="32" rx="16" fill="#3699FF"/>
  <path d="M18.4 19.6V21.6C18.4 22.3455 18.4 22.7183 18.2782 23.0123C18.1158 23.4043 17.8043 23.7158 17.4123 23.8782C17.1183 24 16.7455 24 16 24C15.2545 24 14.8817 24 14.5877 23.8782C14.1957 23.7158 13.8842 23.4043 13.7218 23.0123C13.6 22.7183 13.6 22.3455 13.6 21.6V19.6M18.4 19.6C20.5191 18.6741 22 16.4604 22 14C22 10.6863 19.3137 8 16 8C12.6863 8 10 10.6863 10 14C10 16.4604 11.4809 18.6741 13.6 19.6M18.4 19.6H13.6" stroke="white" stroke-width="1.2" stroke-linecap="round" stroke-linejoin="round"/>
</svg>