<svg width="45" height="45" viewBox="0 0 45 45" fill="none" xmlns="http://www.w3.org/2000/svg">
<rect width="45" height="45" rx="22.5" fill="#FFF4DE"/>
<path d="M20.1331 22.1837C20.1081 22.1837 20.0915 22.1837 20.0665 22.1837C20.0248 22.1753 19.9665 22.1753 19.9165 22.1837C17.4998 22.1087 15.6748 20.2087 15.6748 17.867C15.6748 15.4837 17.6165 13.542 19.9998 13.542C22.3831 13.542 24.3248 15.4837 24.3248 17.867C24.3165 20.2087 22.4831 22.1087 20.1581 22.1837C20.1498 22.1837 20.1415 22.1837 20.1331 22.1837ZM19.9998 14.792C18.3081 14.792 16.9248 16.1753 16.9248 17.867C16.9248 19.5337 18.2248 20.8753 19.8831 20.9337C19.9331 20.9253 20.0415 20.9253 20.1498 20.9337C21.7831 20.8587 23.0665 19.517 23.0748 17.867C23.0748 16.1753 21.6915 14.792 19.9998 14.792Z" fill="#FFA800"/>
<path d="M26.283 22.2913C26.258 22.2913 26.233 22.2913 26.208 22.283C25.8663 22.3163 25.5163 22.0747 25.483 21.733C25.4496 21.3913 25.658 21.083 25.9996 21.0413C26.0996 21.033 26.208 21.033 26.2996 21.033C27.5163 20.9663 28.4663 19.9663 28.4663 18.7413C28.4663 17.4747 27.4413 16.4497 26.1746 16.4497C25.833 16.458 25.5496 16.1747 25.5496 15.833C25.5496 15.4913 25.833 15.208 26.1746 15.208C28.1246 15.208 29.7163 16.7997 29.7163 18.7497C29.7163 20.6663 28.2163 22.2163 26.308 22.2913C26.2996 22.2913 26.2913 22.2913 26.283 22.2913Z" fill="#FFA800"/>
<path d="M20.1413 31.2913C18.508 31.2913 16.8663 30.8747 15.6247 30.0413C14.4663 29.2747 13.833 28.2247 13.833 27.083C13.833 25.9413 14.4663 24.883 15.6247 24.108C18.1247 22.4497 22.1747 22.4497 24.658 24.108C25.808 24.8747 26.4497 25.9247 26.4497 27.0663C26.4497 28.208 25.8163 29.2663 24.658 30.0413C23.408 30.8747 21.7747 31.2913 20.1413 31.2913ZM16.3163 25.158C15.5163 25.6913 15.083 26.3747 15.083 27.0913C15.083 27.7997 15.5247 28.483 16.3163 29.008C18.3913 30.3997 21.8913 30.3997 23.9663 29.008C24.7663 28.4747 25.1997 27.7913 25.1997 27.0747C25.1997 26.3663 24.758 25.683 23.9663 25.158C21.8913 23.7747 18.3913 23.7747 16.3163 25.158Z" fill="#FFA800"/>
<path d="M27.783 29.7917C27.4913 29.7917 27.233 29.5917 27.1746 29.2917C27.108 28.95 27.3246 28.625 27.658 28.55C28.183 28.4417 28.6663 28.2333 29.0413 27.9417C29.5163 27.5833 29.7746 27.1333 29.7746 26.6583C29.7746 26.1833 29.5163 25.7333 29.0496 25.3833C28.683 25.1 28.2246 24.9 27.683 24.775C27.3496 24.7 27.133 24.3667 27.208 24.025C27.283 23.6917 27.6163 23.475 27.958 23.55C28.6746 23.7083 29.2996 23.9917 29.808 24.3833C30.583 24.9667 31.0246 25.7917 31.0246 26.6583C31.0246 27.525 30.5746 28.35 29.7996 28.9417C29.283 29.3417 28.633 29.6333 27.9163 29.775C27.8663 29.7917 27.8246 29.7917 27.783 29.7917Z" fill="#FFA800"/>
</svg>
