<svg width="25" height="26" viewBox="0 0 25 26" fill="none" xmlns="http://www.w3.org/2000/svg">
<g clip-path="url(#clip0_3333_11329)">
<mask id="path-1-inside-1_3333_11329" fill="white">
<path d="M23.5464 16.6485L18.2368 14.9436L15.0337 3.33206L15.0293 3.31678C14.8272 2.6772 14.5984 2.11707 14.3487 1.65299C13.9667 0.940504 13.2249 0.5 12.4107 0.5C12.4059 0.5 12.4011 0.5 12.3959 0.5C11.5695 0.505239 10.8513 0.941813 10.4745 1.66696C10.2331 2.13017 10.0157 2.68767 9.82665 3.33162L6.76582 14.4276L1.45097 16.6489L1.40294 16.6729C0.962003 16.9248 0.679103 17.3775 0.645924 17.884C0.612307 18.3904 0.833651 18.8763 1.23705 19.1841L11.8214 25.2066C12.0894 25.4026 12.4059 25.5 12.7181 25.5C13.0115 25.5 13.3013 25.414 13.5458 25.2433L23.7102 19.2256C24.1472 18.9213 24.3882 18.4223 24.3545 17.8909C24.3205 17.3592 24.0184 16.8947 23.5464 16.6485ZM9.08403 9.30483C10.1078 9.75232 11.2756 9.9968 12.4299 9.9968C13.7218 9.9968 14.9926 9.56809 15.7606 9.25026L16.6704 12.549C15.9247 13.2174 14.4862 13.926 12.5845 13.926C10.7203 13.926 8.99978 13.3628 8.19997 12.5089L9.08403 9.30483ZM10.2139 5.20846L10.3322 5.24949C10.9949 5.47913 11.4328 5.6315 12.4299 5.6315C13.2904 5.6315 13.8148 5.4656 14.422 5.27351L14.6442 5.20409L15.5266 8.40287C14.8407 8.69538 13.6336 9.12409 12.4295 9.12409C11.3499 9.12409 10.2597 8.8866 9.31891 8.45351L10.2139 5.20846ZM10.6657 3.5713C10.8378 2.98847 11.0333 2.48336 11.249 2.07036C11.4738 1.63684 11.9052 1.3762 12.4016 1.37315C12.4046 1.37315 12.4077 1.37315 12.4107 1.37315C12.9102 1.37315 13.3463 1.6316 13.5794 2.06599C13.8021 2.48074 14.0086 2.9876 14.1937 3.57217L14.4116 4.36194L14.1583 4.44096C13.5759 4.62519 13.1551 4.75835 12.4295 4.75835C11.5795 4.75835 11.2582 4.64702 10.6186 4.4248L10.4466 4.36543L10.6657 3.5713ZM7.94065 13.4492C8.98842 14.2844 10.709 14.7987 12.5845 14.7987C14.4893 14.7987 15.981 14.1722 16.9236 13.4667L17.2427 14.6241L17.489 15.5177C17.4938 15.5352 17.496 15.5527 17.4999 15.5701C17.5863 15.9329 17.5387 16.3079 17.3715 16.6183C17.313 16.727 17.2401 16.8274 17.1532 16.9169C16.5468 17.5439 15.2349 18.2908 12.4291 18.2908C9.6232 18.2908 8.31086 17.5439 7.7049 16.9169C7.35869 16.559 7.23034 16.0228 7.36917 15.5173L7.78828 13.9989L7.94065 13.4492ZM6.47463 15.5457C6.46808 15.5863 6.46415 15.6269 6.45979 15.6675C6.45367 15.7247 6.44887 15.7819 6.44669 15.8386C6.44538 15.8796 6.44538 15.9198 6.44582 15.9604C6.44669 16.0172 6.44931 16.0735 6.45455 16.1298C6.45804 16.17 6.46241 16.2101 6.46808 16.2503C6.47594 16.3062 6.48598 16.3616 6.49777 16.4166C6.50606 16.4555 6.51436 16.4943 6.5244 16.5328C6.53924 16.5882 6.55714 16.6419 6.57548 16.696C6.58814 16.7327 6.59993 16.7694 6.61433 16.8052C6.6366 16.8598 6.66236 16.9126 6.68855 16.9654C6.7047 16.9981 6.71955 17.0313 6.73745 17.0636C6.76888 17.12 6.80512 17.1741 6.84135 17.2274C6.85881 17.2527 6.87366 17.2797 6.89199 17.3046C6.94919 17.3815 7.01031 17.4557 7.07797 17.5251C7.71144 18.18 8.95088 18.9444 11.3359 19.1251C11.6764 19.1509 12.0405 19.1649 12.4295 19.1649C12.8185 19.1649 13.1826 19.1509 13.5231 19.1251C15.9081 18.9444 17.1476 18.1795 17.781 17.5251C17.8732 17.4295 17.9526 17.3243 18.0255 17.2151C18.0443 17.1872 18.0618 17.1588 18.0797 17.13C18.143 17.0257 18.1993 16.9178 18.2451 16.8052C18.2486 16.7965 18.2534 16.7882 18.2569 16.7794C18.3036 16.6589 18.3372 16.5341 18.3639 16.407C18.3708 16.3725 18.3765 16.3385 18.3822 16.304C18.4005 16.1909 18.4119 16.0765 18.4136 15.9608C18.4136 15.9464 18.4176 15.932 18.4176 15.9176L21.6866 16.9637L12.8565 22.5828L3.11432 16.8999L6.48074 15.4928C6.47769 15.5107 6.47725 15.5282 6.47463 15.5457ZM23.2382 18.4917L13.073 24.5094C12.8451 24.6679 12.5452 24.6613 12.3247 24.4933L1.74565 18.4733C1.5863 18.3419 1.50292 18.1494 1.51689 17.9416C1.53086 17.7325 1.63913 17.5522 1.81594 17.443L2.12024 17.316C2.13726 17.3299 2.14949 17.3478 2.16913 17.3592L12.8766 23.6053L22.706 17.3505C22.7252 17.3382 22.737 17.3195 22.7536 17.3046L23.1714 17.4382C23.3565 17.5465 23.4696 17.7298 23.4831 17.9464C23.4971 18.1734 23.3984 18.3786 23.2382 18.4917Z"/>
</mask>
<path d="M23.5464 16.6485L18.2368 14.9436L15.0337 3.33206L15.0293 3.31678C14.8272 2.6772 14.5984 2.11707 14.3487 1.65299C13.9667 0.940504 13.2249 0.5 12.4107 0.5C12.4059 0.5 12.4011 0.5 12.3959 0.5C11.5695 0.505239 10.8513 0.941813 10.4745 1.66696C10.2331 2.13017 10.0157 2.68767 9.82665 3.33162L6.76582 14.4276L1.45097 16.6489L1.40294 16.6729C0.962003 16.9248 0.679103 17.3775 0.645924 17.884C0.612307 18.3904 0.833651 18.8763 1.23705 19.1841L11.8214 25.2066C12.0894 25.4026 12.4059 25.5 12.7181 25.5C13.0115 25.5 13.3013 25.414 13.5458 25.2433L23.7102 19.2256C24.1472 18.9213 24.3882 18.4223 24.3545 17.8909C24.3205 17.3592 24.0184 16.8947 23.5464 16.6485ZM9.08403 9.30483C10.1078 9.75232 11.2756 9.9968 12.4299 9.9968C13.7218 9.9968 14.9926 9.56809 15.7606 9.25026L16.6704 12.549C15.9247 13.2174 14.4862 13.926 12.5845 13.926C10.7203 13.926 8.99978 13.3628 8.19997 12.5089L9.08403 9.30483ZM10.2139 5.20846L10.3322 5.24949C10.9949 5.47913 11.4328 5.6315 12.4299 5.6315C13.2904 5.6315 13.8148 5.4656 14.422 5.27351L14.6442 5.20409L15.5266 8.40287C14.8407 8.69538 13.6336 9.12409 12.4295 9.12409C11.3499 9.12409 10.2597 8.8866 9.31891 8.45351L10.2139 5.20846ZM10.6657 3.5713C10.8378 2.98847 11.0333 2.48336 11.249 2.07036C11.4738 1.63684 11.9052 1.3762 12.4016 1.37315C12.4046 1.37315 12.4077 1.37315 12.4107 1.37315C12.9102 1.37315 13.3463 1.6316 13.5794 2.06599C13.8021 2.48074 14.0086 2.9876 14.1937 3.57217L14.4116 4.36194L14.1583 4.44096C13.5759 4.62519 13.1551 4.75835 12.4295 4.75835C11.5795 4.75835 11.2582 4.64702 10.6186 4.4248L10.4466 4.36543L10.6657 3.5713ZM7.94065 13.4492C8.98842 14.2844 10.709 14.7987 12.5845 14.7987C14.4893 14.7987 15.981 14.1722 16.9236 13.4667L17.2427 14.6241L17.489 15.5177C17.4938 15.5352 17.496 15.5527 17.4999 15.5701C17.5863 15.9329 17.5387 16.3079 17.3715 16.6183C17.313 16.727 17.2401 16.8274 17.1532 16.9169C16.5468 17.5439 15.2349 18.2908 12.4291 18.2908C9.6232 18.2908 8.31086 17.5439 7.7049 16.9169C7.35869 16.559 7.23034 16.0228 7.36917 15.5173L7.78828 13.9989L7.94065 13.4492ZM6.47463 15.5457C6.46808 15.5863 6.46415 15.6269 6.45979 15.6675C6.45367 15.7247 6.44887 15.7819 6.44669 15.8386C6.44538 15.8796 6.44538 15.9198 6.44582 15.9604C6.44669 16.0172 6.44931 16.0735 6.45455 16.1298C6.45804 16.17 6.46241 16.2101 6.46808 16.2503C6.47594 16.3062 6.48598 16.3616 6.49777 16.4166C6.50606 16.4555 6.51436 16.4943 6.5244 16.5328C6.53924 16.5882 6.55714 16.6419 6.57548 16.696C6.58814 16.7327 6.59993 16.7694 6.61433 16.8052C6.6366 16.8598 6.66236 16.9126 6.68855 16.9654C6.7047 16.9981 6.71955 17.0313 6.73745 17.0636C6.76888 17.12 6.80512 17.1741 6.84135 17.2274C6.85881 17.2527 6.87366 17.2797 6.89199 17.3046C6.94919 17.3815 7.01031 17.4557 7.07797 17.5251C7.71144 18.18 8.95088 18.9444 11.3359 19.1251C11.6764 19.1509 12.0405 19.1649 12.4295 19.1649C12.8185 19.1649 13.1826 19.1509 13.5231 19.1251C15.9081 18.9444 17.1476 18.1795 17.781 17.5251C17.8732 17.4295 17.9526 17.3243 18.0255 17.2151C18.0443 17.1872 18.0618 17.1588 18.0797 17.13C18.143 17.0257 18.1993 16.9178 18.2451 16.8052C18.2486 16.7965 18.2534 16.7882 18.2569 16.7794C18.3036 16.6589 18.3372 16.5341 18.3639 16.407C18.3708 16.3725 18.3765 16.3385 18.3822 16.304C18.4005 16.1909 18.4119 16.0765 18.4136 15.9608C18.4136 15.9464 18.4176 15.932 18.4176 15.9176L21.6866 16.9637L12.8565 22.5828L3.11432 16.8999L6.48074 15.4928C6.47769 15.5107 6.47725 15.5282 6.47463 15.5457ZM23.2382 18.4917L13.073 24.5094C12.8451 24.6679 12.5452 24.6613 12.3247 24.4933L1.74565 18.4733C1.5863 18.3419 1.50292 18.1494 1.51689 17.9416C1.53086 17.7325 1.63913 17.5522 1.81594 17.443L2.12024 17.316C2.13726 17.3299 2.14949 17.3478 2.16913 17.3592L12.8766 23.6053L22.706 17.3505C22.7252 17.3382 22.737 17.3195 22.7536 17.3046L23.1714 17.4382C23.3565 17.5465 23.4696 17.7298 23.4831 17.9464C23.4971 18.1734 23.3984 18.3786 23.2382 18.4917Z" fill="black" stroke="black" stroke-width="2" mask="url(#path-1-inside-1_3333_11329)"/>
</g>
<defs>
<clipPath id="clip0_3333_11329">
<rect width="25" height="25" fill="white" transform="translate(0 0.5)"/>
</clipPath>
</defs>
</svg>
