<svg width="16" height="17" viewBox="0 0 16 17" fill="none" xmlns="http://www.w3.org/2000/svg">
<path d="M13.9999 4.98633C13.9866 4.98633 13.9666 4.98633 13.9466 4.98633C10.4199 4.63299 6.89994 4.49966 3.41328 4.85299L2.05328 4.98633C1.77328 5.01299 1.52661 4.81299 1.49994 4.53299C1.47328 4.25299 1.67328 4.01299 1.94661 3.98633L3.30661 3.85299C6.85328 3.49299 10.4466 3.63299 14.0466 3.98633C14.3199 4.01299 14.5199 4.25966 14.4933 4.53299C14.4733 4.79299 14.2533 4.98633 13.9999 4.98633Z" fill="#787878"/>
<path d="M5.66651 4.31301C5.63984 4.31301 5.61318 4.31301 5.57984 4.30634C5.31318 4.25967 5.12651 3.99967 5.17318 3.73301L5.31984 2.85967C5.42651 2.21967 5.57318 1.33301 7.12651 1.33301H8.87318C10.4332 1.33301 10.5798 2.25301 10.6798 2.86634L10.8265 3.73301C10.8732 4.00634 10.6865 4.26634 10.4198 4.30634C10.1465 4.35301 9.88651 4.16634 9.84651 3.89967L9.69984 3.03301C9.60651 2.45301 9.58651 2.33967 8.87984 2.33967H7.13318C6.42651 2.33967 6.41318 2.43301 6.31318 3.02634L6.15984 3.89301C6.11984 4.13967 5.90651 4.31301 5.66651 4.31301Z" fill="#787878"/>
<path d="M10.1401 15.6667H5.8601C3.53343 15.6667 3.4401 14.38 3.36676 13.34L2.93343 6.62672C2.91343 6.35338 3.12676 6.11338 3.4001 6.09338C3.6801 6.08005 3.91343 6.28672 3.93343 6.56005L4.36676 13.2734C4.4401 14.2867 4.46676 14.6667 5.8601 14.6667H10.1401C11.5401 14.6667 11.5668 14.2867 11.6334 13.2734L12.0668 6.56005C12.0868 6.28672 12.3268 6.08005 12.6001 6.09338C12.8734 6.11338 13.0868 6.34672 13.0668 6.62672L12.6334 13.34C12.5601 14.38 12.4668 15.6667 10.1401 15.6667Z" fill="#787878"/>
<path d="M9.10672 12H6.88672C6.61339 12 6.38672 11.7733 6.38672 11.5C6.38672 11.2267 6.61339 11 6.88672 11H9.10672C9.38005 11 9.60672 11.2267 9.60672 11.5C9.60672 11.7733 9.38005 12 9.10672 12Z" fill="#787878"/>
<path d="M9.66683 9.33301H6.3335C6.06016 9.33301 5.8335 9.10634 5.8335 8.83301C5.8335 8.55967 6.06016 8.33301 6.3335 8.33301H9.66683C9.94016 8.33301 10.1668 8.55967 10.1668 8.83301C10.1668 9.10634 9.94016 9.33301 9.66683 9.33301Z" fill="#787878"/>
</svg>
