<svg width="16" height="16" viewBox="0 0 16 16" fill="none" xmlns="http://www.w3.org/2000/svg">
<path d="M5.2678 9.97323C5.15245 9.97323 5.03709 9.93073 4.94602 9.83966C4.76995 9.66359 4.76995 9.37216 4.94602 9.19609L6.88888 7.25323C6.98602 7.15609 7.11352 7.10752 7.25316 7.11966C7.38673 7.1318 7.50816 7.20466 7.58709 7.32002L8.24888 8.31573L10.4042 6.16037C10.5803 5.9843 10.8717 5.9843 11.0478 6.16037C11.2239 6.33645 11.2239 6.62787 11.0478 6.80395L8.4978 9.35395C8.40066 9.45109 8.27316 9.49966 8.13352 9.48752C7.99995 9.47537 7.87852 9.40252 7.79959 9.28716L7.1378 8.29145L5.58959 9.83966C5.49852 9.93073 5.38316 9.97323 5.2678 9.97323Z" fill="black"/>
<path d="M10.7321 8.15234C10.4832 8.15234 10.2768 7.94592 10.2768 7.69699V6.93806H9.51786C9.26893 6.93806 9.0625 6.73163 9.0625 6.4827C9.0625 6.23377 9.26893 6.02734 9.51786 6.02734H10.7321C10.9811 6.02734 11.1875 6.23377 11.1875 6.4827V7.69699C11.1875 7.94592 10.9811 8.15234 10.7321 8.15234Z" fill="black"/>
<path d="M9.82185 14.5282H6.17899C2.8822 14.5282 1.47363 13.1196 1.47363 9.82282V6.17997C1.47363 2.88318 2.8822 1.47461 6.17899 1.47461H9.82185C13.1186 1.47461 14.5272 2.88318 14.5272 6.17997V9.82282C14.5272 13.1196 13.1186 14.5282 9.82185 14.5282ZM6.17899 2.38532C3.38006 2.38532 2.38435 3.38104 2.38435 6.17997V9.82282C2.38435 12.6218 3.38006 13.6175 6.17899 13.6175H9.82185C12.6208 13.6175 13.6165 12.6218 13.6165 9.82282V6.17997C13.6165 3.38104 12.6208 2.38532 9.82185 2.38532H6.17899Z" fill="black"/>
</svg>
