<svg xmlns="http://www.w3.org/2000/svg" width="18" height="18" viewBox="0 0 18 18" fill="none">
  <path d="M9.05232 16.4853C7.99482 16.4853 6.92982 16.0803 6.12732 15.2778L2.72982 11.8803C1.90482 11.0553 1.46982 9.91525 1.52232 8.75275L1.70232 5.00275C1.78482 3.21025 3.20232 1.79275 5.00232 1.70275L8.75232 1.52275C9.91482 1.47775 11.0548 1.90525 11.8798 2.73025L15.2773 6.12775C16.8898 7.74025 16.8898 10.3728 15.2773 11.9853L11.9848 15.2778C11.1748 16.0803 10.1173 16.4853 9.05232 16.4853ZM3.52482 11.0778L6.92232 14.4753C7.49232 15.0453 8.24982 15.3603 9.05232 15.3603C9.85482 15.3603 10.6123 15.0453 11.1823 14.4753L14.4748 11.1828C15.0448 10.6128 15.3598 9.85525 15.3598 9.05275C15.3598 8.25025 15.0448 7.49275 14.4748 6.92275L11.0773 3.52525C10.4773 2.92525 9.64482 2.60275 8.80482 2.64775L5.05482 2.82775C3.83232 2.88025 2.87982 3.83275 2.81982 5.04775L2.63982 8.79775C2.60232 9.64525 2.92482 10.4778 3.52482 11.0778Z" fill="#292D32"/>
  <path d="M7.125 9.5625C5.7825 9.5625 4.6875 8.4675 4.6875 7.125C4.6875 5.7825 5.7825 4.6875 7.125 4.6875C8.4675 4.6875 9.5625 5.7825 9.5625 7.125C9.5625 8.4675 8.4675 9.5625 7.125 9.5625ZM7.125 5.8125C6.405 5.8125 5.8125 6.405 5.8125 7.125C5.8125 7.845 6.405 8.4375 7.125 8.4375C7.845 8.4375 8.4375 7.845 8.4375 7.125C8.4375 6.405 7.845 5.8125 7.125 5.8125Z" fill="#292D32"/>
</svg>