<svg xmlns="http://www.w3.org/2000/svg" width="20" height="21" viewBox="0 0 20 21" fill="none">
    <path d="M12.0331 6.54141C11.8748 6.54141 11.7165 6.48307 11.5915 6.35807L9.8998 4.66641L8.20814 6.35807C7.96647 6.59974 7.56647 6.59974 7.3248 6.35807C7.08314 6.11641 7.08314 5.71641 7.3248 5.47474L9.45814 3.34141C9.6998 3.09974 10.0998 3.09974 10.3415 3.34141L12.4748 5.47474C12.7165 5.71641 12.7165 6.11641 12.4748 6.35807C12.3498 6.48307 12.1915 6.54141 12.0331 6.54141Z" fill="white" />
    <path d="M9.8999 12.9418C9.55824 12.9418 9.2749 12.6585 9.2749 12.3168V3.8418C9.2749 3.50013 9.55824 3.2168 9.8999 3.2168C10.2416 3.2168 10.5249 3.50013 10.5249 3.8418V12.3168C10.5249 12.6668 10.2416 12.9418 9.8999 12.9418Z" fill="white" />
    <path d="M10.0002 17.7917C5.7085 17.7917 2.7085 14.7917 2.7085 10.5C2.7085 10.1583 2.99183 9.875 3.3335 9.875C3.67516 9.875 3.9585 10.1583 3.9585 10.5C3.9585 14.0583 6.44183 16.5417 10.0002 16.5417C13.5585 16.5417 16.0418 14.0583 16.0418 10.5C16.0418 10.1583 16.3252 9.875 16.6668 9.875C17.0085 9.875 17.2918 10.1583 17.2918 10.5C17.2918 14.7917 14.2918 17.7917 10.0002 17.7917Z" fill="white" />
</svg>